<svg width="480.4449951171875px" height="121.40498046875px" xmlns="http://www.w3.org/2000/svg" viewBox="9.777502441406256 14.297509765625001 480.4449951171875 121.40498046875" style="background: rgba(0, 0, 0, 0);" preserveAspectRatio="xMidYMid"><defs><filter id="editing-neon" x="-100%" y="-100%" width="300%" height="300%"><feFlood flood-color="#00ff2f" result="flood"></feFlood><feComposite operator="in" in="flood" in2="SourceAlpha" result="color"></feComposite><feFlood flood-color="#00ff2f" result="flood2"></feFlood><feComposite operator="in" in="flood2" in2="SourceAlpha" result="color2"></feComposite><feMorphology operator="dilate" radius="2" in="color" result="dilate"></feMorphology><feGaussianBlur stdDeviation="6" in="color" result="blur1"></feGaussianBlur><feGaussianBlur stdDeviation="2.5" in="color" result="blur2"></feGaussianBlur><feGaussianBlur stdDeviation="1" in="SourceAlpha" result="blur3"></feGaussianBlur><feGaussianBlur stdDeviation="6" in="dilate" result="blur4"></feGaussianBlur><feConvolveMatrix in="color2" result="conv" order="3,3" divisor="1" kernelMatrix="1 1 1  1 1 1  1 1 1"></feConvolveMatrix><feMerge><feMergeNode in="blur1"></feMergeNode><feMergeNode in="blur2"></feMergeNode><feMergeNode in="blur4"></feMergeNode><feMergeNode in="blur3"></feMergeNode><feMergeNode in="blur3"></feMergeNode><feMergeNode in="blur3"></feMergeNode><feMergeNode in="blur3"></feMergeNode><feMergeNode in="conv"></feMergeNode><feMergeNode in="SourceGraphic"></feMergeNode></feMerge></filter></defs><g filter="url(#editing-neon)"><g transform="translate(80.27500486373901, 103.15999984741211)"><path d="M27.01-20.61L39.94-21.76L39.94-21.76Q35.33-11.65 35.33 0.06L35.33 0.06L35.33 0.06Q33.60 1.28 31.07 1.28L31.07 1.28L31.07 1.28Q28.54 1.28 26.94 0.10L26.94 0.10L26.94 0.10Q25.34-1.09 25.02-2.30L25.02-2.30L25.02-2.30Q23.42-0.64 20.83 0.32L20.83 0.32L20.83 0.32Q18.24 1.28 15.49 1.28L15.49 1.28L15.49 1.28Q12.74 1.28 10.34 0.38L10.34 0.38L10.34 0.38Q7.94-0.51 6.08-2.50L6.08-2.50L6.08-2.50Q1.98-6.85 1.98-15.10L1.98-15.10L1.98-15.10Q1.98-27.90 8.83-35.58L8.83-35.58L8.83-35.58Q15.87-43.52 28.35-43.52L28.35-43.52L28.35-43.52Q36.99-43.52 40.06-39.04L40.06-39.04L40.06-39.04Q41.02-37.63 41.02-35.94L41.02-35.94L41.02-35.94Q41.02-34.24 40.29-32.80L40.29-32.80L40.29-32.80Q39.55-31.36 38.40-30.21L38.40-30.21L38.40-30.21Q35.65-27.65 32.26-27.65L32.26-27.65L32.26-27.65Q30.91-27.65 29.63-28.10L29.63-28.10L29.63-28.10Q29.89-30.02 29.89-32.26L29.89-32.26L29.89-32.26Q29.89-34.50 29.73-35.52L29.73-35.52L29.73-35.52Q29.57-36.54 29.18-37.38L29.18-37.38L29.18-37.38Q28.35-39.10 26.53-39.10L26.53-39.10L26.53-39.10Q24.70-39.10 22.69-37.15L22.69-37.15L22.69-37.15Q20.67-35.20 19.07-32L19.07-32L19.07-32Q15.55-24.83 15.55-16.19L15.55-16.19L15.55-16.19Q15.55-12.22 17.09-9.41L17.09-9.41L17.09-9.41Q18.75-6.34 21.70-6.34L21.70-6.34L21.70-6.34Q22.72-6.34 23.65-6.85L23.65-6.85L23.65-6.85Q24.58-7.36 24.96-7.74L24.96-7.74L27.01-20.61ZM63.10-17.98L63.10-17.98L63.10-17.98Q65.41-22.08 65.41-26.24L65.41-26.24L65.41-26.24Q65.41-28.99 63.42-28.99L63.42-28.99L63.42-28.99Q61.89-28.99 60.29-26.37L60.29-26.37L60.29-26.37Q58.62-23.74 58.11-20.35L58.11-20.35L54.78 0L41.54 1.28L48.06-32.64L58.62-33.92L57.47-27.46L57.47-27.46Q60.61-33.92 67.65-33.92L67.65-33.92L67.65-33.92Q71.36-33.92 73.38-32L73.38-32L73.38-32Q75.39-30.08 75.39-26.14L75.39-26.14L75.39-26.14Q75.39-22.21 72.80-19.71L72.80-19.71L72.80-19.71Q70.21-17.22 65.79-17.22L65.79-17.22L65.79-17.22Q63.87-17.22 63.10-17.98ZM102.34-10.82L102.34-10.82L102.34-10.82Q103.94-9.73 103.94-7.33L103.94-7.33L103.94-7.33Q103.94-4.93 102.72-3.39L102.72-3.39L102.72-3.39Q101.50-1.86 99.52-0.83L99.52-0.83L99.52-0.83Q95.42 1.28 91.01 1.28L91.01 1.28L91.01 1.28Q86.59 1.28 84 0.32L84 0.32L84 0.32Q81.41-0.64 79.68-2.43L79.68-2.43L79.68-2.43Q76.29-5.82 76.29-12.03L76.29-12.03L76.29-12.03Q76.29-21.70 81.54-27.58L81.54-27.58L81.54-27.58Q87.17-33.92 96.96-33.92L96.96-33.92L96.96-33.92Q103.04-33.92 106.05-31.36L106.05-31.36L106.05-31.36Q108.29-29.44 108.29-26.30L108.29-26.30L108.29-26.30Q108.29-15.04 88.83-15.04L88.83-15.04L88.83-15.04Q88.58-13.38 88.58-11.97L88.58-11.97L88.58-11.97Q88.58-9.02 89.89-7.90L89.89-7.90L89.89-7.90Q91.20-6.78 93.63-6.78L93.63-6.78L93.63-6.78Q96.06-6.78 98.66-7.90L98.66-7.90L98.66-7.90Q101.25-9.02 102.34-10.82ZM89.28-17.79L89.28-17.79L89.28-17.79Q93.82-17.79 96.45-20.61L96.45-20.61L96.45-20.61Q99.07-23.30 99.07-27.58L99.07-27.58L99.07-27.58Q99.07-29.06 98.53-29.86L98.53-29.86L98.53-29.86Q97.98-30.66 96.90-30.66L96.90-30.66L96.90-30.66Q95.81-30.66 94.88-30.24L94.88-30.24L94.88-30.24Q93.95-29.82 92.99-28.42L92.99-28.42L92.99-28.42Q90.62-25.22 89.28-17.79ZM136.38-10.82L136.38-10.82L136.38-10.82Q137.98-9.73 137.98-7.33L137.98-7.33L137.98-7.33Q137.98-4.93 136.77-3.39L136.77-3.39L136.77-3.39Q135.55-1.86 133.57-0.83L133.57-0.83L133.57-0.83Q129.47 1.28 125.06 1.28L125.06 1.28L125.06 1.28Q120.64 1.28 118.05 0.32L118.05 0.32L118.05 0.32Q115.46-0.64 113.73-2.43L113.73-2.43L113.73-2.43Q110.34-5.82 110.34-12.03L110.34-12.03L110.34-12.03Q110.34-21.70 115.58-27.58L115.58-27.58L115.58-27.58Q121.22-33.92 131.01-33.92L131.01-33.92L131.01-33.92Q137.09-33.92 140.10-31.36L140.10-31.36L140.10-31.36Q142.34-29.44 142.34-26.30L142.34-26.30L142.34-26.30Q142.34-15.04 122.88-15.04L122.88-15.04L122.88-15.04Q122.62-13.38 122.62-11.97L122.62-11.97L122.62-11.97Q122.62-9.02 123.94-7.90L123.94-7.90L123.94-7.90Q125.25-6.78 127.68-6.78L127.68-6.78L127.68-6.78Q130.11-6.78 132.70-7.90L132.70-7.90L132.70-7.90Q135.30-9.02 136.38-10.82ZM123.33-17.79L123.33-17.79L123.33-17.79Q127.87-17.79 130.50-20.61L130.50-20.61L130.50-20.61Q133.12-23.30 133.12-27.58L133.12-27.58L133.12-27.58Q133.12-29.06 132.58-29.86L132.58-29.86L132.58-29.86Q132.03-30.66 130.94-30.66L130.94-30.66L130.94-30.66Q129.86-30.66 128.93-30.24L128.93-30.24L128.93-30.24Q128-29.82 127.04-28.42L127.04-28.42L127.04-28.42Q124.67-25.22 123.33-17.79ZM171.58 1.28L171.58 1.28L171.58 1.28Q163.84 1.28 163.84-4.74L163.84-4.74L163.84-4.74Q163.90-6.40 164.42-9.22L164.42-9.22L165.57-15.10L165.57-15.10Q167.30-23.42 167.30-25.28L167.30-25.28L167.30-25.28Q167.30-28.99 165.12-28.99L165.12-28.99L165.12-28.99Q161.47-28.99 159.55-19.46L159.55-19.46L155.78 0L142.91 1.28L149.57-32.70L160.06-33.92L159.04-27.65L159.04-27.65Q162.05-33.92 171.26-33.92L171.26-33.92L171.26-33.92Q175.74-33.92 177.63-32.03L177.63-32.03L177.63-32.03Q179.52-30.14 179.52-25.92L179.52-25.92L179.52-25.92Q179.52-21.95 177.47-12.67L177.47-12.67L177.47-12.67Q176.51-8.51 176.51-6.94L176.51-6.94L176.51-6.94Q176.51-5.38 177.38-4.48L177.38-4.48L177.38-4.48Q178.24-3.58 179.52-3.46L179.52-3.46L179.52-3.46Q178.88-1.28 176.67 0L176.67 0L176.67 0Q174.46 1.28 171.58 1.28ZM226.18-26.56L226.18-26.56L226.18-26.56Q226.18 0.70 196.61 0.70L196.61 0.70L196.61 0.70Q191.87 0.70 184.06-0.45L184.06-0.45L191.23-38.27L191.23-38.27Q191.74-40.83 192.06-42.30L192.06-42.30L192.06-42.30Q201.79-43.01 206.11-43.01L206.11-43.01L206.11-43.01Q210.43-43.01 214.40-42.11L214.40-42.11L214.40-42.11Q218.37-41.22 220.99-39.23L220.99-39.23L220.99-39.23Q226.18-35.33 226.18-26.56ZM212.99-28.93L212.99-28.93L212.99-28.93Q212.99-38.46 206.14-38.46L206.14-38.46L205.50-38.46L205.50-38.46Q205.18-38.46 204.86-38.40L204.86-38.40L198.27-4.03L198.27-4.03Q198.53-3.90 198.78-3.90L198.78-3.90L199.30-3.90L199.30-3.90Q201.66-3.90 204.13-5.38L204.13-5.38L204.13-5.38Q206.59-6.85 208.51-9.86L208.51-9.86L208.51-9.86Q212.99-16.83 212.99-28.93ZM243.39 1.28L243.39 1.28L243.39 1.28Q229.31 1.28 229.31-11.97L229.31-11.97L229.31-11.97Q229.31-21.38 234.50-27.46L234.50-27.46L234.50-27.46Q240.00-33.92 249.54-33.92L249.54-33.92L249.54-33.92Q256.45-33.92 259.97-30.72L259.97-30.72L259.97-30.72Q263.49-27.52 263.49-20.80L263.49-20.80L263.49-20.80Q263.49-10.56 257.98-4.61L257.98-4.61L257.98-4.61Q252.61 1.28 243.39 1.28ZM245.06-26.56L245.06-26.56L245.06-26.56Q244.29-24.83 243.68-22.24L243.68-22.24L243.68-22.24Q243.07-19.65 242.30-15.55L242.30-15.55L242.30-15.55Q241.54-11.46 241.54-6.40L241.54-6.40L241.54-6.40Q241.54-4.74 242.08-3.65L242.08-3.65L242.08-3.65Q242.62-2.56 244.10-2.56L244.10-2.56L244.10-2.56Q245.57-2.56 246.50-3.26L246.50-3.26L246.50-3.26Q247.42-3.97 248.13-5.63L248.13-5.63L248.13-5.63Q249.41-8.58 250.43-14.05L250.43-14.05L250.43-14.05Q251.46-19.52 251.55-21.89L251.55-21.89L251.55-21.89Q251.65-24.26 251.65-26.02L251.65-26.02L251.65-26.02Q251.65-27.78 251.14-28.93L251.14-28.93L251.14-28.93Q250.62-30.08 249.18-30.08L249.18-30.08L249.18-30.08Q247.74-30.08 246.78-29.18L246.78-29.18L246.78-29.18Q245.82-28.29 245.06-26.56ZM271.81-26.75L271.81-26.75L271.81-26.75Q273.98-29.82 277.28-31.87L277.28-31.87L277.28-31.87Q280.58-33.92 284.61-33.92L284.61-33.92L284.61-33.92Q288.64-33.92 290.56-32.64L290.56-32.64L303.10-33.92L298.75-9.34L298.75-9.34Q296.51 3.20 291.78 8.13L291.78 8.13L291.78 8.13Q287.23 12.80 278.40 12.80L278.40 12.80L278.40 12.80Q271.68 12.80 267.84 10.69L267.84 10.69L267.84 10.69Q264.00 8.58 264.00 5.06L264.00 5.06L264.00 5.06Q264.00 2.43 265.98 0.93L265.98 0.93L265.98 0.93Q267.97-0.58 271.04-0.58L271.04-0.58L271.04-0.58Q273.73-0.58 275.78 0.64L275.78 0.64L275.78 0.64Q276.99 1.28 277.57 2.18L277.57 2.18L277.57 2.18Q276.10 3.46 276.10 5.57L276.10 5.57L276.10 5.57Q276.10 8.32 278.66 8.32L278.66 8.32L278.66 8.32Q282.94 8.32 285.38-1.79L285.38-1.79L285.38-1.79Q286.08-4.54 286.66-7.30L286.66-7.30L286.66-7.30Q283.78-3.78 277.25-3.78L277.25-3.78L277.25-3.78Q272.70-3.78 270.08-5.95L270.08-5.95L270.08-5.95Q267.46-8.13 267.46-13.25L267.46-13.25L267.46-13.25Q267.46-16.45 268.54-20.06L268.54-20.06L268.54-20.06Q269.63-23.68 271.81-26.75ZM280.13-13.06L280.13-13.06L280.13-13.06Q280.13-8.70 282.37-8.70L282.37-8.70L282.37-8.70Q283.90-8.70 285.38-10.37L285.38-10.37L285.38-10.37Q286.53-11.71 286.98-13.70L286.98-13.70L290.24-30.14L290.24-30.14Q289.92-30.21 289.60-30.34L289.60-30.34L289.60-30.34Q288.96-30.59 288.13-30.59L288.13-30.59L288.13-30.59Q284.22-30.59 281.92-24.19L281.92-24.19L281.92-24.19Q280.13-19.20 280.13-13.06ZM331.52-10.82L331.52-10.82L331.52-10.82Q333.12-9.73 333.12-7.33L333.12-7.33L333.12-7.33Q333.12-4.93 331.90-3.39L331.90-3.39L331.90-3.39Q330.69-1.86 328.70-0.83L328.70-0.83L328.70-0.83Q324.61 1.28 320.19 1.28L320.19 1.28L320.19 1.28Q315.78 1.28 313.18 0.32L313.18 0.32L313.18 0.32Q310.59-0.64 308.86-2.43L308.86-2.43L308.86-2.43Q305.47-5.82 305.47-12.03L305.47-12.03L305.47-12.03Q305.47-21.70 310.72-27.58L310.72-27.58L310.72-27.58Q316.35-33.92 326.14-33.92L326.14-33.92L326.14-33.92Q332.22-33.92 335.23-31.36L335.23-31.36L335.23-31.36Q337.47-29.44 337.47-26.30L337.47-26.30L337.47-26.30Q337.47-15.04 318.02-15.04L318.02-15.04L318.02-15.04Q317.76-13.38 317.76-11.97L317.76-11.97L317.76-11.97Q317.76-9.02 319.07-7.90L319.07-7.90L319.07-7.90Q320.38-6.78 322.82-6.78L322.82-6.78L322.82-6.78Q325.25-6.78 327.84-7.90L327.84-7.90L327.84-7.90Q330.43-9.02 331.52-10.82ZM318.46-17.79L318.46-17.79L318.46-17.79Q323.01-17.79 325.63-20.61L325.63-20.61L325.63-20.61Q328.26-23.30 328.26-27.58L328.26-27.58L328.26-27.58Q328.26-29.06 327.71-29.86L327.71-29.86L327.71-29.86Q327.17-30.66 326.08-30.66L326.08-30.66L326.08-30.66Q324.99-30.66 324.06-30.24L324.06-30.24L324.06-30.24Q323.14-29.82 322.18-28.42L322.18-28.42L322.18-28.42Q319.81-25.22 318.46-17.79Z" fill="none" stroke="#e9ffd4" stroke-width="1"></path></g></g><style>text {
  font-size: 64px;
  font-family: Arial Black;
  dominant-baseline: central;
  text-anchor: middle;
}</style></svg>