<svg width="150" height="58" xmlns="http://www.w3.org/2000/svg" version="1.1">
 <g id="Layer_1">
  <title>Layer 1</title>
  <g transform="matrix(1.03309 0 0 1.03309 4.75209 -0.280734)" stroke="null">
   <title stroke="null">Dogecoin (DOGE)</title>
   <g stroke="null" data-name="Layer 2" id="svg_6">
    <g stroke="null" data-name="Layer 1" id="svg_7">
     <g stroke="null" data-name="Layer_1" id="svg_8">
      <circle stroke="null" fill="#988430" r="15.9645" cy="29.07279" cx="82.98645"/>
      <circle stroke="null" fill="#7a6a2a" r="15.45313" cy="29.07279" cx="82.98645"/>
      <circle stroke="null" fill="#ba9f33" r="15.12753" cy="29.07279" cx="82.98645"/>
      <path stroke="null" fill="#cfb66c" fill-rule="evenodd" d="m73.6092,27.36786c-0.09438,-0.08259 -0.19408,-0.16535 -0.28579,-0.24794s-0.18591,-0.16535 -0.28028,-0.24794l-0.28046,-0.25543c-0.04585,-0.04393 -0.09438,-0.08259 -0.14023,-0.12669c-0.04585,-0.03866 -0.09971,-0.08259 -0.14556,-0.12142c-0.37217,-0.33836 -0.74647,-0.67672 -1.11348,-1.01526c0.38017,0.33325 0.75233,0.66412 1.1325,1.00232l0.13205,0.12669c0.04585,0.04376 0.09438,0.08259 0.14023,0.12652l0.28028,0.24794c0.09438,0.08259 0.18608,0.16535 0.28046,0.25543s0.18608,0.17301 0.28046,0.25543l-0.00018,0.00034zm-4.93932,-0.05109s1.35342,0.13419 2.01405,0.22461c0.61193,0.08276 2.52627,0.36425 2.52627,0.36425l-4.54031,-0.58886zm0,0c0.38017,0.03099 0.76033,0.06965 1.1405,0.10847c0.19408,0.01805 0.38017,0.03866 0.56625,0.05671l0.28561,0.03116c0.09438,0.01277 0.18608,0.02571 0.28046,0.03866l1.1325,0.17301l0.56607,0.09042c0.18608,0.03099 0.37217,0.06471 0.56625,0.0957c-0.18608,-0.01805 -0.38017,-0.04393 -0.56625,-0.06982l-0.56607,-0.07748l-1.1325,-0.16007c-0.09438,-0.01294 -0.18608,-0.03116 -0.28046,-0.04393l-0.28579,-0.0315c-0.18608,-0.01805 -0.38017,-0.04393 -0.56625,-0.06471c-0.38017,-0.04376 -0.76033,-0.09042 -1.1405,-0.14713l0.00018,0.00051zm4.40559,0.92671s-1.44513,0.35147 -1.93318,0.48583c-0.47987,0.12652 -1.93318,0.5502 -1.93318,0.5502l3.86618,-1.03586l0.00018,-0.00017z"/>
      <path stroke="null" fill="#cfb66c" fill-rule="evenodd" d="m73.0753,28.24348c-0.3208,0.09042 -0.63983,0.17829 -0.96526,0.26105l-0.96526,0.24794c-0.3208,0.09042 -0.63983,0.17829 -0.95975,0.26871l-0.47987,0.12652c-0.15907,0.04393 -0.3208,0.08259 -0.48521,0.12669c0.15889,-0.05109 0.3208,-0.10336 0.47987,-0.1473l0.47987,-0.14713c0.3208,-0.0957 0.63983,-0.18612 0.95975,-0.28166c0.32614,-0.07748 0.64712,-0.16024 0.97325,-0.23517c0.30996,-0.07493 0.63628,-0.14968 0.96259,-0.2195l0,0l0,-0.00017zm-3.66392,1.88849c0.15889,-0.05688 1.99236,-0.87562 2.41838,-1.06685c0.21328,-0.0957 0.8332,-0.30652 0.8332,-0.30652l-3.25159,1.37337z"/>
      <path stroke="null" fill="#cfb66c" fill-rule="evenodd" d="m69.41137,30.13198c0.14005,-0.05109 0.27228,-0.11358 0.407,-0.17301l0.39901,-0.17829l0.80086,-0.36935c0.2666,-0.12142 0.52573,-0.25543 0.80068,-0.36953c0.14023,-0.05671 0.28046,-0.10319 0.42051,-0.14713l0.21328,-0.06454c0.07269,-0.01805 0.14023,-0.03883 0.21328,-0.05688c-0.2666,0.12142 -0.54723,0.22478 -0.81418,0.34347c-0.2666,0.12669 -0.53924,0.23006 -0.81436,0.34364l-0.81418,0.34347c-0.27335,0.10609 -0.53995,0.21967 -0.81205,0.32815l0,0l0.00018,0zm0.17773,0.71521s1.66072,-0.9325 2.2323,-1.2322c0.2993,-0.16007 1.26722,-0.62002 1.26722,-0.62002l-3.49952,1.85222z"/>
      <path stroke="null" fill="#cfb66c" fill-rule="evenodd" d="m69.58928,30.84753c0.28028,-0.16535 0.56607,-0.33325 0.85186,-0.50371l0.42655,-0.24811c0.14556,-0.08259 0.28579,-0.16007 0.4342,-0.24266c0.14556,-0.08276 0.28579,-0.16535 0.43402,-0.24283a1.55586,1.4907 0 0 1 0.2211,-0.10847l0.22643,-0.10847c0.2993,-0.13947 0.5986,-0.28166 0.91407,-0.40307c-0.28579,0.17318 -0.57976,0.32048 -0.87355,0.47272c-0.14556,0.07748 -0.29397,0.1473 -0.43953,0.22478s-0.28579,0.16024 -0.4342,0.23517c-0.14556,0.08259 -0.28579,0.16007 -0.43402,0.235l-0.43953,0.22989l-0.88705,0.45978l0,0l-0.00036,0zm3.48601,-1.64822s-1.03262,0.75948 -1.36693,1.00232s-1.31841,0.92483 -1.31841,0.92483l2.68533,-1.92715z"/>
      <polygon stroke="null" fill="#e2cc85" fill-rule="evenodd" points="79.00186920166016,35.32399508357048 78.47347259521484,34.36560961604118 78.78077697753906,33.16695925593376 80.97271728515625,32.35587069392204 80.039794921875,30.52187106013298 80.5008316040039,28.66965052485466 81.36637878417969,27.011044949293137 84.04103088378906,26.60813471674919 86.00636291503906,24.812789410352707 90.25020599365234,25.12015864253044 91.08322143554688,29.467788189649582 89.4790267944336,34.941701382398605 88.56514739990234,37.77563235163689 84.86054229736328,37.90997835993767 83.14049530029297,36.768205136060715 81.12645721435547,35.96206423640251 79.00186920166016,35.32399508357048 "/>
      <path stroke="null" fill="#f1d789" fill-rule="evenodd" d="m85.49939,35.29324s-0.5124,0.22478 -1.3863,0.17301c-0.25291,-0.32542 -2.02418,-0.47783 -2.02418,-0.47783s-0.2211,-0.06454 -0.6121,0.09042c-0.3935,0.15326 -0.76566,0.13436 -1.11348,0.21695s-0.69315,-0.3513 -0.95975,-0.44173c-0.2666,-0.09553 -0.6201,-0.32542 -0.6201,-0.32542l-0.74647,-0.06982l-1.49898,-0.60708l-2.38142,-2.27318l-0.64712,0.97064l-0.19959,1.20121l0.71999,1.42344l1.93851,1.69198l3.77998,0.91956l2.24047,-0.63245l2.80673,-1.13667l0.70381,-0.72321l0,0.00017z"/>
      <polygon stroke="null" fill="#f4ecb4" fill-rule="evenodd" points="72.07005310058594,27.259150952100754 72.54991912841797,25.866878002882004 73.1216812133789,24.967750042676926 74.96295928955078,24.82045504450798 74.41021728515625,26.365310162305832 72.87088012695312,28.98995730280876 73.50984954833984,31.3329539000988 72.37752532958984,31.8753180205822 72.02953338623047,31.363948315382004 71.74925231933594,30.19116923213005 71.73040771484375,28.873652905225754 72.07005310058594,27.259150952100754 "/>
      <path stroke="null" fill="#f3e19d" fill-rule="evenodd" d="m74.13493,35.19771l-0.35315,-0.47272s-0.09438,-0.22478 -0.04034,-0.42112c0.05332,-0.1989 0.04568,-0.21184 0.01884,-0.28677s-0.25344,-0.33325 -0.23994,-0.55548c0.01333,-0.22478 -0.01884,-0.29971 0.15356,-0.47783c0.18057,-0.17301 0.12672,-0.47272 0.12672,-0.47272l0.2346,0.13947l0.05332,-0.07748s0.0862,0.06454 0.0862,0.16535c0.01884,-0.13947 -0.05936,-0.78537 0.11855,-0.9325s0.49338,0.68967 0.49338,0.68967l-0.19408,-1.21415l-0.49889,-1.24498l-0.88705,-1.13667l-0.05332,-1.25298l0,-0.10847s-0.40718,0.59941 -0.5204,1.07281c-0.08087,0.32542 0.11321,0.72066 0.07287,1.18827c-0.03252,0.46506 -0.07287,0.42879 0.04568,0.61304s0.40718,0.56314 0.29397,0.83697c-0.09971,0.23517 -0.43953,0.06982 -0.43953,0.06982s-0.06736,0.19106 -0.15907,0.26088c-0.03235,-0.11358 -0.06736,-0.18595 -0.13205,-0.25543c-0.00551,0.04393 -0.01884,0.10336 -0.01884,0.10336s-0.05936,-0.17829 -0.11872,-0.40307c-0.08069,-0.29954 -0.16707,-0.69478 -0.24527,-0.90661c-0.03235,0.12142 -0.11321,0.49077 -0.11321,0.49077l0.04585,0.56842l0.2211,0.78009l0.21328,0.51086l0.20759,0.62513l0.1804,0.41993l0.14556,0.32031l0.12672,0.72083l0.61193,0.61985l0.32631,0.13964l0.23709,-0.11631l0,0l0.00036,-0.00017z"/>
      <path stroke="null" fill="#f2e8b0" fill-rule="evenodd" d="m72.3905,26.12272s-0.43953,0.71521 -0.56607,1.43621s-0.23994,1.48287 -0.15996,2.46441c0.08087,0.98954 0.2346,1.59645 0.35866,2.03051c0.21328,0.72083 0.76566,1.72314 0.76566,1.72314l0.01884,-0.03883a2.84156,2.72257 0 0 1 -0.2211,-0.5296c-0.07287,-0.27382 -0.09988,-0.59924 -0.16724,-0.74654c-0.05936,-0.14713 -0.15907,-0.27382 -0.20759,-0.45467c-0.04585,-0.17301 -0.05332,-0.44684 -0.19408,-0.65084c-0.05936,-0.08276 -0.13223,-0.29971 -0.15374,-0.51665c-0.02702,-0.32559 0.01351,-0.68984 -0.01884,-0.98937c-0.05936,-0.4986 -0.09971,-0.83697 -0.04585,-1.09802s0.33449,-1.00215 0.50707,-1.59117c0.11321,-0.37719 0.04568,-0.69495 0.25327,-1.02309c0.20759,-0.32542 0.33449,-0.61219 0.38017,-0.81108c0.05332,-0.18085 -0.5499,0.79559 -0.5499,0.79559l0,0l0.00071,0z"/>
      <path stroke="null" fill="#f5eec0" fill-rule="evenodd" d="m74.47475,25.83595s-0.22643,0.06471 -0.33431,0.17829c-0.10788,0.10847 -0.15374,0.1989 -0.2993,0.3823s-0.15374,0.33325 -0.27246,0.56314c-0.11855,0.22478 -0.38017,0.56314 -0.41251,0.68456s-0.0862,0.68967 -0.15356,0.95838c-0.05936,0.26871 0.06736,0.59941 0.06736,0.59941l0.15356,-0.03116s0,0.19123 0.15374,0.32048c0.15356,0.12652 0.18057,-0.42896 0.18057,-0.42896l0.57425,-1.85733l0.86537,-0.56314l0.09438,-0.45467l-0.61744,-0.3513l0,0l0.00036,0z"/>
      <path stroke="null" fill="#e6db9d" fill-rule="evenodd" d="m74.89526,26.6782s-0.40718,0.02571 -0.6066,0.16535c-0.08087,0.05671 -0.11321,0.10319 -0.19941,0.17301c-0.15907,0.12652 -0.32098,0.24283 -0.39901,0.40869c-0.08638,0.16518 -0.18075,0.41584 -0.24545,0.88856c-0.02702,0.1989 -0.02702,0.3823 -0.04585,0.54254c-0.02702,0.21695 -0.06736,0.38996 -0.04585,0.51086c0.02702,0.24794 0.29397,0.37719 0.31992,0.65867l0.55274,-0.26854l0.5204,-1.96598l1.10549,-0.66412l-0.62561,-0.67162l-0.33147,0.22137l0,0l0.00071,0.00119z"/>
      <path stroke="null" fill="#e5cb7a" fill-rule="evenodd" d="m71.97923,39.91656c0.00231,-0.01941 0.00462,-0.03883 0.00693,-0.05875c0.08069,-0.66412 0.09438,-1.16749 0.15356,-1.4827c0.0862,-0.44684 0.14556,-0.61304 0.13205,-0.78026c-0.01884,-0.26854 -0.04034,-0.46489 -0.01333,-0.67162c0.04034,-0.27382 0.3208,-0.59924 0.31281,-0.82402c-0.00551,-0.17829 -0.09988,-0.29443 -0.18075,-0.4029s-0.14556,-0.1989 -0.14556,-0.1989s0.55274,-0.36425 0.54741,-1.83162a0.14538,0.1393 0 0 1 0.03235,0.01294l0.27228,0.74126l0.18608,0.21695l0.71448,1.27614l0.9194,0.85519l1.35875,0.87562l0.85204,0.88839l0.0862,2.36888l-1.11348,1.38461l-0.18235,0.3164a15.83777,15.17454 0 0 1 -3.93905,-2.68578l0.00018,0.00017z"/>
      <path stroke="null" fill="#d8c173" fill-rule="evenodd" d="m75.38064,42.18275s0.01884,-0.29443 0.27228,-0.48566c0.04052,0.06454 0.06736,0.12669 0.05936,0.17301c0.04585,-0.07731 0.36666,-0.57336 1.09198,-0.70261c0.72532,-0.12652 0.90056,-0.63279 0.90056,-0.63279l1.53933,-1.34068l1.7606,-1.55252l2.14077,-0.72083l1.00045,-0.23517s0.01884,0.06982 -0.01884,0.22478c0.18591,-0.01277 0.59842,-0.10319 1.02711,-0.24794c0.17258,-0.06454 0.33449,-0.09042 0.42069,-0.00511c0.12672,0.11358 0.14556,0.3823 0.15356,0.54237c0.20759,-0.04393 0.44753,-0.235 0.63983,-0.21695c0.30747,0.03099 0.57976,0.37719 0.89256,0.37719c0.41251,0 0.59842,-0.24283 0.88705,-0.43406c0.17258,-0.11358 0.42051,-0.25543 0.56074,-0.3513c0.33431,-0.23517 3.87169,-1.27103 3.87169,-1.27103l1.24021,0.07748l0.19959,1.27614l-0.10664,3.33594c-0.01315,0.01209 -0.0263,0.02469 -0.03963,0.03678l-5.63904,2.82184l-7.8166,1.14808a15.67781,15.02128 0 0 1 -4.99708,-1.64686l-0.03999,-0.17029l0,0l-0.00053,0.00017z"/>
      <path stroke="null" fill="#f1d789" fill-rule="evenodd" d="m72.45324,40.34092c0.11108,-0.22257 0.21097,-0.40869 0.22856,-0.47527c0.01386,0.13419 0.03928,0.42862 0.09046,0.7416q-0.1612,-0.13129 -0.31903,-0.2665l0,0.00017z"/>
      <path stroke="null" fill="#e0cd81" fill-rule="evenodd" d="m78.1632,43.48035l1.01093,-0.2694l0.0862,0.02588s0.04585,0.02588 0.04585,0.11358c0.12672,-0.06965 0.2346,-0.05688 0.31281,-0.10319c0.04034,0.08259 0.08069,0.35641 0.25878,0.38996c0.18591,0.03883 0.3855,-0.07748 0.58776,-0.22461c0.19941,-0.15241 0.42655,-0.34364 0.59842,-0.42112a3.21337,3.07881 0 0 1 0.16724,0.34347c0.22643,-0.17301 0.6201,-0.87562 1.18084,-0.86285a2.12779,2.03869 0 0 1 0.77882,-0.9015c0.5204,-0.33836 0.84653,-0.36425 1.25371,-0.33325a2.14379,2.05401 0 0 1 0.58776,-0.50371c0.06736,0.02588 0.25344,0.13436 0.48538,0.03099c0.2346,-0.10319 0.49871,-0.50371 0.84653,-0.55531a0.81756,0.78333 0 0 1 0.53924,0.10847s1.01307,-0.96366 1.71208,-1.28397c-0.02702,-0.07748 -0.08087,-0.36935 0.73865,-1.01526c0.04585,0.03883 0.01351,0.1473 0.04585,0.15326c0.01333,0 0.21328,-0.08259 0.46637,-0.26871c0.31281,-0.22461 0.68746,-0.45978 0.91389,-0.52432c0.42655,-0.12142 0.87906,0.12652 0.87906,0.12652a0.40523,0.38826 0 0 1 0.12672,-0.05688c0.1077,-0.01805 0.18591,-0.03099 0.24527,-0.05109c-0.00533,0.13436 0.07287,0.36425 0,0.56314a1.31076,1.25587 0 0 0 0.2666,0.10847c-0.04568,0.09553 -0.14556,0.33836 -0.31263,0.45467c0.14005,0.06454 0.15889,0.13947 0.35848,0.20435c-0.08087,0.10847 -0.21328,0.2946 -0.27228,0.40869c-0.05936,0.12142 -0.27246,0.62513 -0.36684,0.81619c-0.09971,0.19123 -0.23443,0.54254 -0.2993,0.61304s-0.2993,0.36935 -0.47987,0.51648c0.15996,-0.05688 0.81436,-0.24794 1.09198,-0.32031c-0.08264,0.11614 -0.50156,0.71163 -0.90429,1.28431a15.82053,15.15802 0 0 1 -12.95124,1.43655l0.00124,-0.00255z"/>
      <path stroke="null" fill="#dfc57c" fill-rule="evenodd" d="m74.96191,26.60838s-0.23443,0 -0.28028,0.03099s0.2346,0.0957 0.3208,0.12669s0.27228,0.17301 0.3208,0.28677c0.04585,0.10847 1.68507,0.74126 1.68507,0.74126l1.15934,-0.05688l0.39972,-0.52908l-0.76033,-0.63807l0.53319,-1.50603l-0.7063,0.10847l-1.69857,0.97064l-0.85204,0.31265l-0.12139,0.15258l0,0z"/>
      <path stroke="null" fill="#e5cc7c" fill-rule="evenodd" d="m77.5079,27.10698a0.18182,0.1742 0 0 0 0.15996,0.08259c0.23994,0 0.46086,0.05688 0.55257,0.17301c0.15374,0.18612 0.57976,0.78026 0.57976,0.78026l1.01911,0.3513l0.06576,-1.14978l-1.11348,-0.74126l-1.26722,0.44684l0,0.05688l0.00284,0l0.00071,0.00017z"/>
      <path stroke="null" fill="#d2c281" fill-rule="evenodd" d="m77.30795,27.53321s0.18591,0.01294 0.42051,-0.06982s0.6201,-0.26088 0.78735,-0.19106c0.23443,0.09553 0.18591,0.39524 0.43953,0.66412c0.15356,0.16535 0.43402,0.16024 0.59309,0.33853s0.7063,0.09553 0.7063,0.09553l0.20759,1.07281l-0.83302,1.02309l-0.27246,1.27086l-1.12646,0l-1.02906,-0.39115l-0.50689,-1.17499l0.25344,-1.18827l0.36008,-1.44966l0,0z"/>
      <path stroke="null" fill="#e2c270" fill-rule="evenodd" d="m79.48693,27.58481a0.30499,0.29221 0 0 0 0.0862,0.01294c-0.03235,0.02588 -0.09988,0.08259 -0.07287,0.22989s0.11321,0.33325 0.04052,0.44684a0.58296,0.55854 0 0 1 0.12672,0.21184c0.04585,0.12669 0.05936,0.24283 0.35848,0.26105a0.62988,0.6035 0 0 0 -0.11855,0.09042s0.20759,0.17301 0.31281,0.33308c0.1077,-0.00443 0.3935,-0.08957 0.3935,-0.08957l0.05936,0.03883l0.12672,-0.05109s-0.11855,-0.04393 -0.03235,-0.32031c0.08087,-0.24283 0.15374,-0.22989 0.15996,-0.24794s0.05936,-0.27382 0.05936,-0.37719c0.04034,-0.13419 0.07269,-0.54237 0.07269,-0.54237l-0.0862,-0.9015l-0.48521,-0.28166l-0.39456,-0.36493l-0.37217,0.67162l-0.24509,0.23415l-0.01884,0.58119l0.0295,0.06471l0,0z"/>
      <path stroke="null" fill="#ccb360" fill-rule="evenodd" d="m80.65427,26.8306s0.0862,0.235 0.11872,0.41584a0.41749,0.40001 0 0 0 0.01884,-0.10847s0.06736,0.35658 0.08069,0.50388c0.02702,-0.00528 0.05332,-0.01294 0.05936,0.01277s0.06754,0.31265 0.05332,0.47272a1.34453,1.28823 0 0 1 0.45286,-0.43389c0.10788,-0.06471 0.2346,-0.13436 0.36684,-0.13964c0.20759,-0.00511 0.35848,0.12669 0.6066,0.12669c0.59842,0 1.1405,-0.42112 1.5395,-0.5502c0.29379,-0.0957 0.54723,-0.16535 0.72514,-0.32048c0.08638,-0.06965 0.24011,-0.22461 0.38017,-0.45467c0.18608,-0.30652 0.38017,-0.57336 0.57443,-0.60691a1.20466,1.15421 0 0 1 -0.2666,0.01805s0.05936,-0.05688 0.15996,-0.13436s0.2211,-0.17301 0.3935,-0.17301c0.30747,0 0.46103,0.04376 0.63361,0.04376c0.17258,-0.00511 0.27228,-0.04376 0.27228,-0.04376s0.18075,0.12142 0.58776,0.12142c0.40718,0.00511 0.67946,0.03866 0.89256,0.05688s0.9274,-0.05688 1.13232,-0.05109a0.99209,0.95055 0 0 1 0.38568,0.09042l-0.66063,-1.83911l-2.37306,-1.98726l-1.41278,0.95838l-2.17329,2.08211l-2.10291,0.74654l-0.43953,0.47272l0,0.72066l-0.00533,0z"/>
      <path stroke="null" fill="#d5b457" fill-rule="evenodd" d="m85.37267,25.77652s0.05936,-0.05671 0.15889,-0.13419s0.22127,-0.17318 0.39367,-0.17318c0.3073,0 0.46103,0.04393 0.63361,0.04393c0.17258,-0.00511 0.27228,-0.04393 0.27228,-0.04393s0.18093,0.12125 0.58776,0.12125c0.40718,0.00511 0.67946,0.03866 0.89256,0.05671s0.9274,-0.05671 1.13232,-0.05109a0.98694,0.94561 0 0 1 0.3855,0.09042l-0.2993,-0.8293l-0.34764,-0.63279l-0.99227,-1.04114s-1.1908,-0.67162 -1.19986,-0.67672c-0.00533,-0.00511 -0.41251,-0.10847 -0.41251,-0.10847l-1.07847,0.62513l-0.97859,2.42575l-0.01884,0.51086l0.63343,0.28677c0.15907,-0.25543 0.33449,-0.45978 0.49889,-0.48566c-0.14841,0.0155 -0.26162,0.0155 -0.26162,0.0155l0,0l0.00018,0.00017z"/>
      <path stroke="null" fill="#d2b257" fill-rule="evenodd" d="m85.35916,25.9497c-0.09438,0.00511 -0.1724,-0.01294 -0.19408,-0.07748c-0.08087,-0.21695 -0.14556,-0.24794 -0.21328,-0.24794s-0.15907,0.13947 -0.21328,0.15224s-0.11855,-0.16007 -0.11855,-0.16007l-0.05936,-0.02588s-0.34782,0.21695 -0.59309,0.47272s-0.64712,0.68984 -0.82769,0.76715s-0.80086,0.10336 -1.01307,0.1473s-0.44753,0.19123 -0.47987,0.22478s0.09455,0.06965 0.11339,0.10319c0.01884,0.03099 -0.20777,0.01805 -0.22661,0.05109c-0.01333,0.02588 0.05332,0.17301 0.08638,0.24794a0.43953,0.42112 0 0 1 0.18591,-0.04393c0.20759,-0.00511 0.35866,0.12669 0.6066,0.12669c0.5986,0 1.1405,-0.42112 1.5395,-0.55037c0.29397,-0.09553 0.54741,-0.16535 0.72532,-0.32031c0.0862,-0.06965 0.23994,-0.22478 0.38017,-0.45467c0.10237,-0.15752 0.20226,-0.30482 0.30214,-0.41329l0,0l-0.00053,0.00085z"/>
      <path stroke="null" fill="#d2b159" fill-rule="evenodd" d="m76.77476,38.73425s-0.05332,-0.19123 -0.54741,-0.68456c-0.14023,-0.13947 -0.22643,-0.25543 -0.3208,-0.33836c-0.2346,-0.21201 -0.37217,-0.26871 -0.53924,-0.39013c-0.36666,-0.26088 -0.76566,-0.26088 -1.07296,-0.58119s-0.66542,-0.93233 -0.91425,-1.5578c-0.24527,-0.62513 -0.31281,-0.82402 -0.31281,-0.84207s0.06754,-0.13947 0.15374,-0.12142s0.0862,0.17812 0.10788,0.21695a1.33778,1.28176 0 0 0 0.14556,0.17812c0.12672,0.13964 0.3073,0.30652 0.39901,0.55548c-0.01884,-0.21184 -0.09438,-0.44684 -0.09438,-0.44684s0.47454,0.28677 0.87888,0.5863c0.40718,0.29971 0.57425,0.40307 0.69315,0.59414s0.39901,0.69495 0.53319,0.84224s1.97281,0.70261 1.97281,0.70261l0.87461,0.62479l0.4342,0.91189l-0.33982,0.51086l-0.65245,0.13436l-1.05963,-0.45467l-0.33929,-0.44088l0,0l0,0.00017z"/>
      <path stroke="null" fill="#c2a44d" fill-rule="evenodd" d="m74.42072,35.59295s0.2211,0.33836 0.76033,0.65867c0.48538,0.28166 1.25371,0.53743 1.93869,0.68984c0.3935,0.09042 0.78717,0.16007 1.14032,0.16535c0.95175,0.01277 1.60686,-0.24794 2.41856,-0.33325c0.43953,-0.04393 0.97876,-0.07748 1.5395,-0.20435c0.71981,-0.16535 1.14583,-0.35147 1.72559,-0.61304c0.42051,-0.18595 0.80619,-0.32542 1.11882,-0.50371c0.43953,-0.24794 0.76033,-0.52432 1.1325,-0.60691c-0.04585,0.12142 -0.09438,0.33836 -0.46103,0.56314c0.19408,-0.00528 0.46103,-0.01805 0.46103,-0.01805s-0.25878,0.14713 -0.71448,0.47783c-0.28046,0.20435 -0.65245,0.5502 -1.03262,0.78009c-0.24545,0.1473 -0.5124,0.25543 -0.68764,0.34364c-0.42655,0.22478 -0.5986,0.33836 -0.87888,0.61304c0.09971,-0.00511 0.10788,0 0.10788,0s-0.35333,0.04393 -0.6066,0.17301c-0.05332,0 -0.14574,-0.01805 -0.30747,0.02588c-0.12672,0.03866 -0.29397,0.12669 -0.46637,0.17301c-0.24545,0.06982 -0.32614,0.03883 -0.32614,0.03883l0.04034,0.07748s-0.31992,-0.00528 -0.42655,0.00511c0.01884,0.00511 0.01351,0.01294 0.01351,0.01294a0.16369,0.15684 0 0 0 -0.05332,0.01805a0.5563,0.533 0 0 1 -0.16707,0.06965c-0.03235,0.00511 -0.05936,0.00511 -0.09988,0.01294c0.01351,0.03099 0.11872,0.20435 0.16724,0.30652c-0.04034,0.02588 -0.64712,0.46506 -0.64712,0.46506a0.4621,0.44275 0 0 1 0.04585,0.09042c0.01884,0.05671 0.02702,0.13947 0.04585,0.17812c0.04568,0.07748 0.07269,0.09042 0.07269,0.09042s-0.07269,0.01294 -0.19959,0.04393c-0.1077,0.02588 -0.23994,0.06965 -0.42655,0.09553a1.69075,1.61995 0 0 1 -0.17258,0.01294c0.02702,0.05688 0.14556,0.27382 -0.07287,0.52432s-0.28579,0.28694 -0.35315,0.44701a0.72319,0.6929 0 0 0 -0.10788,-0.06471c-0.07269,-0.03099 -0.17258,-0.07731 -0.20759,-0.13947a1.72985,1.65741 0 0 1 -0.08087,0.24283c-0.06736,0.17301 -0.16707,0.34364 -0.18591,0.47272c-0.07287,-0.07748 -0.20759,-0.22989 -0.39367,-0.1989s-0.33431,0.27382 -0.36666,0.34364c0,-0.04393 -0.03235,-0.07748 -0.04034,-0.02588c-0.00551,0.05688 -0.10788,0.65084 -0.67946,1.13139c-0.00533,-0.12142 -0.00533,-0.39013 -0.01884,-0.47783c-0.05332,0.05109 -0.11855,0.12652 -0.50689,0.28677c-0.38017,0.16007 -0.31992,0.32031 -0.31992,0.32031s-0.03235,-0.25543 0.17258,-0.52449c0.20759,-0.26854 0.33431,-0.39524 0.33431,-0.41584a0.11997,0.11494 0 0 0 -0.02702,-0.05688c-0.02702,-0.02588 -0.08087,-0.05688 -0.08087,-0.07748c0.03235,-0.01277 0.35315,-0.16007 0.33431,-0.46506c-0.01884,-0.27365 -0.14005,-0.41584 -0.22643,-0.51648c-0.01333,-0.01294 0.1269,-0.10847 0.10788,-0.13947c-0.01351,-0.01805 -0.18591,-0.13964 -0.20759,-0.20435a0.61957,0.59362 0 0 1 0.02702,-0.11358c0.01884,-0.05688 0.03235,-0.0957 0.02702,-0.13436c-0.01351,-0.06454 -0.08638,-0.24283 -0.10788,-0.26088c0.01884,0.00511 0.15356,0 0.15356,0s-0.1077,-0.16535 -0.12672,-0.24283s-0.05936,-0.28166 -0.08087,-0.32031c0.04585,0.00511 0.15907,0.01277 0.15907,0c0.00551,-0.03883 -0.09971,-0.10336 -0.05332,-0.15326c0.03235,0.00511 0.09438,0.03099 0.15356,0.10336c-0.03235,-0.08276 -0.0862,-0.24283 -0.19959,-0.30737c0.05332,-0.01805 0.2346,-0.06471 0.39367,0.02571s0.21328,0.21695 0.21328,0.21695s0.09438,0.06982 0.24011,0.17318c0.16707,0.12652 0.37999,0.30652 0.71981,0.43389c0.07287,0.03883 0.25878,0.03883 0.39367,0.01294a0.60535,0.58 0 0 0 0.16707,-0.06454a0.30978,0.29681 0 0 1 0.05936,-0.02588a1.29228,1.23816 0 0 0 -0.09971,-0.16024c0.04585,0 0.09971,0.00528 0.09971,0.00528s0.03235,-0.06982 -0.11321,-0.20435c0.03235,-0.03099 0.07287,-0.05109 0.07287,-0.10336c-0.04585,-0.00511 -0.12672,-0.06965 -0.14556,-0.09553c0.02684,-0.01805 0.06736,-0.07748 0.11321,-0.09553c-0.04052,-0.03099 -0.14023,-0.16024 -0.18608,-0.17301a0.8476,0.8121 0 0 0 0.12672,-0.05688s-0.22643,-0.05688 -0.2993,-0.10336c-0.07287,-0.05109 -0.18057,-0.13947 -0.24527,-0.16535c-0.06754,-0.02588 -0.18608,-0.03866 -0.2346,-0.09042c0.04568,0.01294 0.11855,0 0.17258,0c0.04034,0 0.05936,0.00511 0.07269,0.00511c-0.00533,-0.01805 -0.00533,-0.05688 0.09988,-0.06965a0.49249,0.47187 0 0 0 0.14556,-0.04393s-0.09988,-0.00511 -0.21328,-0.10847s-0.20759,-0.18595 -0.27228,-0.1989c-0.06736,-0.01294 -0.19408,0.04393 -0.27228,0.03866c-0.10788,-0.01277 -0.15374,-0.06454 -0.15374,-0.06454s-0.35848,0.03099 -1.15383,-0.43389c-0.68764,-0.40307 -0.98694,-0.75948 -0.98694,-0.75948a1.18227,1.13276 0 0 1 -0.18591,-0.08276c-0.25878,-0.12908 -0.61744,-0.39779 -0.6066,-0.74927l0,0l-0.00142,0.00255z"/>
      <path stroke="null" fill="#caa13e" fill-rule="evenodd" d="m84.33987,20.08822a0.34995,0.3353 0 0 1 0.15996,0.10336c0.12672,0.13947 0.20759,0.4029 -0.08087,0.68456c0.11321,0.03866 0.15996,0.05109 0.25878,0.03866c-0.09971,0.11375 -0.32614,0.35658 -0.33964,0.56842c-0.01351,0.17301 0.09971,0.22478 0.09971,0.22478s-0.17258,0.19106 -0.18057,0.51086a2.1605,2.07002 0 0 1 0.2666,-0.24283c0.19959,-0.15241 0.47454,-0.32542 0.66063,-0.43389a0.38017,0.36425 0 0 0 0.01884,0.13419s0.34764,-0.27382 0.63983,-0.15224c0.13205,0.05688 0.07269,0.235 0.07269,0.235s0.18075,-0.06454 0.30747,0.05688s0.30587,0.43458 0.39776,0.55599c0.04034,0.05688 0.14556,0.16535 0.25327,0.33325a4.39937,4.21514 0 0 1 0.36684,0.74126c0.00533,-0.13436 0.04034,-0.34347 0.43953,-0.21184c0.39901,0.13436 0.85186,0.41601 1.23203,0.97064s0.47436,1.18078 0.66578,1.41918c0.19408,0.22989 0.39367,0.61219 0.40718,0.77243s-0.05936,0.67672 0.33964,2.07428c0.11321,-0.43389 0.28579,-1.39755 0.28579,-1.39755l0.09438,-0.84991l0.10788,-2.62976l-2.86609,-2.28135l-2.24047,-1.5578l-1.45864,0.13436l0.09153,0.1989l0,0l0.00018,0.00017z"/>
      <path stroke="null" fill="#b59544" fill-rule="evenodd" d="m89.66487,24.00178s-0.04052,-0.25543 -0.71448,-0.68967c-0.67413,-0.42879 -1.19986,-0.42879 -1.68507,-0.79303c-0.37217,-0.28677 -0.76033,-0.94561 -1.01307,-1.16256c-0.24545,-0.21439 -0.28579,-0.83441 -0.28579,-0.83441l0.82769,-0.66412l1.23096,-1.70475l1.04061,-1.09785l0.49871,0.66412l0.69315,0.78009l0.3855,1.56546l0.14023,2.2914l-1.1197,1.64549l0.00124,-0.00017z"/>
      <path stroke="null" fill="#c89d3a" fill-rule="evenodd" d="m90.49807,26.74836a3.0392,2.91193 0 0 0 -0.13223,-1.02803c-0.17773,-0.5296 -0.56607,-1.46993 -0.74647,-1.82208c-0.07287,-0.39013 -0.01884,-0.42112 0.05936,-0.46506s0.37217,-0.20435 0.53319,-0.76715s0.66063,-0.58119 0.66063,-0.58119l0.3073,-0.21695l0.46654,1.11845l0.407,1.01015l0.12672,0.77243l0.09438,0.65867l-0.2211,1.39245l-1.0918,0.94544l-0.4637,-1.01713l0,0l0.00018,0z"/>
      <path stroke="null" fill="#ceb052" fill-rule="evenodd" d="m75.2621,42.26824l0,-0.02861a0.22927,0.21967 0 0 0 0.05918,-0.05109c0.01884,-0.02588 0.03252,-0.05688 0.04585,-0.06454c0.02702,-0.01294 0.15374,-0.05109 0.2211,-0.03883s0.24545,0.08259 0.33982,0.07748c0.19408,-0.00511 0.42051,-0.1473 0.77917,-0.08259c0.53924,0.09553 0.66596,0.44684 0.97876,0.64573c0.21328,0.13964 0.43402,0.07748 0.46637,0.07748l0.07269,0c0.01351,0 0.11321,-0.10847 0.16724,-0.10319c0.10788,0.00511 0.11855,0.09042 0.18591,0.09553c0.15907,0.01805 0.46654,-0.07748 0.62028,-0.03866a0.29628,0.28387 0 0 1 0.19408,0.18578c0.03235,0.09553 0.00533,0.21695 -0.07287,0.28677c-0.16707,0.14713 -0.32614,0.28677 -0.35848,0.40869a1.51516,1.45171 0 0 1 0.11837,0.09604a15.6963,15.03899 0 0 1 -3.81748,-1.46448l0,-0.00153z"/>
      <path stroke="null" fill="#cca847" fill-rule="evenodd" d="m89.61901,37.10681s0.42051,-0.53726 0.56625,-0.80342c0.14556,-0.27433 -0.46103,-3.74821 -0.46103,-3.74821l1.2187,-3.82569l-0.03252,-1.24515s0.05936,-1.14961 0.19959,-1.64822c0.16724,0.28677 0.68764,0.63296 0.80086,0.81636c0.05332,-0.35147 0.23443,-1.09274 0.20759,-1.88322c0.09971,0.14713 0.33964,1.62744 0.33964,1.62744l0.23994,0.99704l0.31281,1.05919l0.34782,1.11862l0.20759,0.77243l0.11855,0.18595l0.09988,0.32542l0.09438,0.35147l0.27228,0.82402l0.15996,0.67672l0.12672,1.2271a1.95255,1.87078 0 0 1 0.05936,0.28677c0.00533,0.13436 -0.01884,0.21184 -0.01884,0.23517s0.04585,0.29443 0.02702,0.4986c-0.02702,0.20435 -0.02702,0.36425 -0.19426,0.51086s-0.27228,1.02292 -0.27228,1.02292l-0.2993,-0.19106s0.05936,-0.26105 -0.08087,-0.4986s-0.41251,-0.28677 -0.56625,-0.24794c-0.15356,0.03099 -0.46086,0.07731 -0.56074,0.16007c-0.09438,0.08259 -0.32614,0.33836 -0.53924,0.45467c-0.2666,0.15326 -0.70097,0.16535 -0.93273,0.21695c-0.2346,0.05109 -0.49338,0.20435 -0.76584,0.3823a4.27585,4.09679 0 0 1 -0.67396,0.34058l0,0l-0.00107,0.00085z"/>
      <path stroke="null" fill="#c39d3c" fill-rule="evenodd" d="m89.61901,42.75118s0.01777,0.01107 0.05208,0.02912a15.83582,15.17267 0 0 0 5.04756,-3.58456c-0.01546,-0.52278 -0.03555,-1.05868 -0.05758,-1.25724c-0.04568,-0.42112 -0.01333,-0.84991 -0.02684,-1.09785s-0.15907,-1.25809 -0.22643,-1.51897c-0.07287,-0.26088 -0.21328,-0.39013 -0.2346,-0.39013c-0.01884,0.00528 -0.13223,0.49094 -0.13223,0.61304s-0.02702,0.41601 -0.02702,0.49094c-0.01884,-0.00528 -0.02684,-0.05109 -0.02684,-0.06982c-0.02702,0.06454 -0.05936,0.17829 -0.07287,0.19123s0.01884,-0.10847 0,-0.13436s-0.05332,-0.01294 -0.04585,-0.07748a0.77153,0.73922 0 0 1 0.01884,-0.11358s-0.08087,0.11358 -0.14005,0.4029c-0.05936,0.28677 -0.05936,0.2946 -0.08087,0.32031c-0.01884,0.03116 -0.12672,0.13436 -0.13223,0.17318c-0.00533,0.06965 0.09988,0.13947 0.10788,0.17812c0.00533,0.06471 -0.09438,0.36425 -0.12672,0.51086s-0.01884,0.43389 -0.05332,0.58119c-0.02702,0.13436 -0.05332,0.21184 -0.14556,0.26854c0.06736,0.01294 0.13205,0.03099 0.13205,0.03099s0.09438,0.3823 -0.14556,0.70789c-0.0862,0.11358 -0.1077,0.16535 -0.19941,0.26871c-0.18075,0.19106 -0.32098,0.40869 -0.33449,0.5502a0.96472,0.92432 0 0 1 -0.01884,-0.12669s-0.28028,0.31265 -0.39901,0.49094c-0.15356,0.22989 -0.36666,0.21695 -0.42655,0.27382s-0.07287,0.16007 -0.05332,0.24283c-0.05332,0.01277 -0.15356,0.03099 -0.2211,0.22989c-0.03235,0.10319 -0.11321,0.20435 -0.23994,0.27382s-0.28046,0.09042 -0.35866,0.10847c0.06736,0.01805 0.09438,0.01805 0.12672,0.03866c-0.04034,0.06454 -0.22643,0.16535 -0.43402,0.2946c-0.20759,0.12142 -0.30747,0.29954 -0.35866,0.41584c-0.05332,0.10847 -0.13205,0.17829 -0.25878,0.19123c0.05332,0.03099 0.13223,0.10319 0.17258,0.12652c-0.05936,0.01294 -0.15996,0.01294 -0.33964,0.16024c-0.18875,0.14985 -0.25344,0.19379 -0.33982,0.20673l0,0l-0.00089,-0.00017z"/>
      <path stroke="null" fill="#d2ba6b" fill-rule="evenodd" d="m85.86747,43.9483a1.52475,1.4609 0 0 1 0.33289,-0.1691c0.42051,-0.16007 0.86537,-0.19106 1.04061,-0.24266c0.16724,-0.05109 0.2993,-0.12159 0.50689,-0.16024c-0.00551,0.0453 -0.01013,0.08787 -0.01511,0.12806a15.71265,15.05466 0 0 1 -1.86617,0.44394l0.00089,0z"/>
      <path stroke="null" fill="#c0993a" fill-rule="evenodd" d="m93.62364,33.35076s-0.0862,0.44684 -0.23994,0.72849s-0.31992,0.67162 -0.31992,0.67162a1.28233,1.22863 0 0 1 0.03235,-0.26105c-0.19408,0.10847 -0.66596,0.36953 -0.79979,0.48566c-0.12672,0.10847 -0.33982,0.29971 -0.39367,0.39013c0.12672,-0.35641 0.25878,-0.67672 0.28046,-0.82402c-0.19408,0.13436 -1.10015,0.84991 -1.57185,1.32263l-1.46948,1.13923a5.08559,4.87262 0 0 1 -0.52306,0.23466c-0.25327,0.10319 -0.55257,0.19106 -0.77366,0.27382c0.05936,-0.15241 0.15356,-0.28694 0.28579,-0.41601c0.14023,-0.12652 0.56074,-0.56314 0.62543,-0.7663c0.05936,-0.21184 0.07287,-0.33836 -0.00533,-0.51665c-0.07287,0.01805 -0.23994,0.02588 -0.35315,0.05688s-0.2346,0.14713 -0.2346,0.14713s0.0862,-0.47272 0.27228,-0.91956c-0.14023,0.00511 -0.38017,0.04376 -0.38017,0.04376s0.33431,-0.53726 0.90643,-0.91172a2.9482,2.82474 0 0 0 -0.51222,0.15224c-0.33431,0.13436 -0.70097,0.33325 -0.97325,0.44173c0.15356,-0.20435 1.23203,-1.67904 1.87382,-3.05344c0.63983,-1.37167 0.87888,-1.72297 1.01911,-2.45913c0.07269,-0.36425 0.05332,-0.90253 0.07269,-1.38461c0.01884,-0.478 0.08087,-0.90678 0.04052,-1.19355c0.16707,0.1989 0.79268,0.75948 0.81418,2.01246c0.01884,1.25281 -0.59842,2.94496 -1.25371,3.85668c0.15996,0.04393 0.57443,0.0957 1.00027,-0.61304s0.42069,-0.90661 0.57443,-1.20121c0.01884,0.1473 0.01333,0.1989 0.01333,0.1989s0.62028,-0.72066 0.91407,-1.62744c0.05936,0.39013 0.2346,0.73377 -0.04052,1.44932c-0.24527,0.64573 -0.56607,0.80342 -0.56607,0.80342s0.15907,-0.02588 0.3935,-0.16024c0.04052,0.09553 0.03252,0.20435 0.09988,0.24283s0.15907,0.10336 0.17258,0.16535c0.07269,-0.10336 0.18591,-0.23517 0.2211,-0.33325c-0.02702,0.20435 -0.04585,1.09785 0.05332,1.55252c0.20777,-0.01805 0.42069,-0.03099 0.56625,-0.39013c-0.09971,0.35147 -0.09971,0.56314 -0.03235,0.86285c0.11055,-0.0722 0.21026,-0.20145 0.21026,-0.20145l0,0l0.00071,0.00051z"/>
      <path stroke="null" fill="#a88f33" fill-rule="evenodd" d="m86.61821,19.11179s-0.20759,0.08259 -0.56074,0.08259c-0.3073,0 -0.2211,-0.11358 -0.70097,-0.11358c-0.73865,0 -3.31895,0.40869 -3.77198,0.4029c-0.29397,-0.00511 0.99209,0.12142 0.99209,0.12142l3.28678,0.04393l0.66045,-0.05109l0.24545,-0.47851l-0.15107,-0.00766z"/>
      <path stroke="null" fill="#e3c571" fill-rule="evenodd" d="m78.09566,25.2677s-0.42069,0.30737 -0.5986,0.54254s-0.27228,0.38996 -0.47454,0.58119a0.41411,0.39677 0 0 0 0.14023,-0.01805s0,0.05109 -0.03235,0.06454a0.18857,0.18068 0 0 1 0.15356,0.05109c-0.05936,0.03099 -0.2211,0.18612 -0.09438,0.36953c0.09438,0.13947 0.29397,0.15224 0.29397,0.15224s-0.04585,0.12669 0.14556,0.11375c0.41251,-0.01805 0.87355,-0.19123 1.08647,-0.1473c0.21328,0.05109 0.33449,0.06982 0.48538,0.32048c0.15996,0.24794 0.2993,0.28677 0.2993,0.28677s0.09438,-0.23006 0.07287,-0.57353a1.78015,1.70561 0 0 0 0.12672,-0.58119l-0.14023,-0.98937l-0.61193,-0.74143l-0.79268,0.42112l-0.05936,0.14713l0,0.00051z"/>
      <path stroke="null" fill="#d8b65b" fill-rule="evenodd" d="m78.84781,25.1204s0.05936,0.13436 0.30747,0.14713c-0.02702,0.05688 -0.02702,0.06471 -0.01884,0.10847c0.00533,0.04393 0.01333,0.10847 0.01333,0.10847a0.25078,0.24028 0 0 0 0.07287,-0.05109c0.01351,0.05688 -0.01351,0.14713 0,0.21184a0.49107,0.47051 0 0 0 0.04034,0.11358a0.23816,0.22819 0 0 1 0.01351,-0.02571c0.00533,-0.01294 0.05332,0.13947 0.18608,0.25543a0.11055,0.10592 0 0 1 0.01333,-0.05109a0.18697,0.17914 0 0 0 0.03235,0.09042a0.09846,0.09434 0 0 1 -0.02684,-0.01805s0.01333,0.40869 0.0862,0.62002a0.30303,0.29034 0 0 0 0.03235,-0.04393c0,-0.01277 -0.00533,0.11375 -0.01884,0.20435c-0.01884,0.09042 -0.00533,0.21695 -0.00533,0.21695a0.70755,0.67792 0 0 1 0.15889,-0.09042c0.08087,-0.03116 0.21328,-0.12669 0.29397,-0.33853a2.3608,2.26194 0 0 0 0.10788,-0.36935a0.53817,0.51563 0 0 1 0.05332,0.15326c0.00551,0.06454 0.13223,0.03099 0.13223,0.03099l0.02702,-0.28166l0.15996,-0.63807l0.14556,-0.39524l0.70097,-1.04608l1.26651,-0.93454l1.10549,0.24283l0.93273,-1.21415l-1.60686,-0.92483l-1.52066,0.15241l-1.38008,1.83145l-1.10531,1.66116l-0.19959,0.27382l0,0l0,0.00017z"/>
      <path stroke="null" fill="#d3ae4d" fill-rule="evenodd" d="m86.81229,22.47004s-0.09438,0.01805 -0.36666,0.15326s-0.46103,0.17812 -0.56625,0.37702s-0.11321,0.35658 -0.11321,0.35658s0.18608,-0.07748 0.29397,-0.10336c0.11321,-0.02571 0.23994,-0.01805 0.22643,0.02588a0.31263,0.29954 0 0 1 -0.05332,0.08259s0.21328,-0.00511 0.20759,0.0957s-0.04034,0.21184 -0.08069,0.26088c-0.04052,0.05109 -0.20759,0.12669 -0.22643,0.18612c-0.04585,0.12142 0.01884,0.12652 -0.00551,0.22461c-0.01884,0.0957 -0.1077,0.28166 -0.39901,0.60708c-0.2993,0.32559 -0.42655,0.55548 -0.42655,0.55548s-0.14556,-0.26088 -0.2211,-0.48566c-0.05332,0.02571 -0.33964,0.17812 -0.33964,0.17812l-0.66329,-2.21374l0.01333,-0.1473s0.05936,-0.06965 0.07287,-0.1989c-0.09971,-0.03099 -0.11321,-0.05688 -0.24545,-0.17812s-0.23994,-0.26871 -0.46086,-0.36953c-0.03235,-0.05688 -0.07287,-0.13419 -0.2346,-0.16535s-0.25878,-0.05671 -0.25878,-0.05671s0.0862,-0.03116 0.12672,-0.0957c-0.09988,0.01294 -0.18057,0.04393 -0.39901,0.03883c-0.2211,-0.00528 -0.24545,-0.01294 -0.36666,0.00511s-0.2666,0.06982 -0.3208,-0.10847c-0.05936,-0.04393 -0.18608,-0.00511 -0.29397,0.14713s-0.14556,0.27382 -0.35315,0.33325a0.72354,0.69324 0 0 1 -0.09438,0.24794c-0.05936,0.0957 -0.15374,0.19123 -0.28046,0.33325c-0.19959,0.22478 -0.16724,0.59414 -0.48538,0.87579c-0.3208,0.28149 0.05332,-0.78026 0.05332,-0.78026l0.51222,-1.17499l1.45864,-1.36656l2.26482,-0.14713l0.2211,1.1239l1.10549,0.36425l0.6983,1.02037l0,0l0.00036,-0.00136z"/>
      <path stroke="null" fill="#caa13e" fill-rule="evenodd" d="m87.17095,22.71798l-0.95175,-1.31479l-0.66596,-0.49094s-0.47454,-0.8368 -0.50689,-0.86268c-0.02702,-0.01805 -0.47454,-0.06454 -0.76033,-0.08259l0.05332,0.12652a0.34995,0.3353 0 0 1 0.15996,0.10336c0.12672,0.13947 0.20759,0.4029 -0.08087,0.68456c0.11321,0.03866 0.15996,0.05109 0.25878,0.03866c-0.09971,0.11375 -0.32614,0.35658 -0.33964,0.56842c-0.01351,0.17301 0.09971,0.22461 0.09971,0.22461s-0.17258,0.19123 -0.18057,0.51086a2.1605,2.07002 0 0 1 0.2666,-0.24283c0.19959,-0.15326 0.47454,-0.32559 0.66063,-0.43406a0.3807,0.36476 0 0 0 0.01884,0.13436s0.34764,-0.27382 0.63983,-0.15241c0.13205,0.05688 0.07269,0.23517 0.07269,0.23517s0.18075,-0.06454 0.30747,0.05688s0.3073,0.43389 0.39901,0.55548c0.04034,0.05688 0.14556,0.16535 0.25327,0.33308a4.39546,4.21139 0 0 1 0.36684,0.74143c0.00533,-0.10336 0.02702,-0.24794 0.21328,-0.24794l-0.28313,-0.48566l-0.00107,0.00051z"/>
      <path stroke="null" fill="#f4efc8" fill-rule="evenodd" d="m72.9029,26.45342s-0.06736,-0.16024 0,-0.47272s0.17258,-0.45978 0.20759,-0.91956s0.34782,-1.03331 0.34782,-1.03331l0.86537,-0.37702l0.6121,0.16007l0.18057,0.78537l-0.77384,0.40869s-0.04034,0.17301 -0.25878,0.31248s-0.5204,0.24794 -0.59309,0.39013a1.18706,1.13735 0 0 0 -0.09438,0.27382s-0.2211,-0.04393 -0.35315,0.09553c-0.14023,0.14219 -0.1349,0.26871 -0.14023,0.37719l0,-0.00068z"/>
      <path stroke="null" fill="#ebcc73" fill-rule="evenodd" d="m74.64999,26.24413s-0.07287,0.04393 -0.12672,0.15326c-0.05332,-0.08259 -0.18075,-0.57353 -0.18608,-1.01526s-0.03288,-0.55122 0.07376,-0.70346s0.52484,-0.31265 0.46548,-0.58681c-0.05936,-0.26088 -0.30747,-0.36935 -0.6121,-0.29443c-0.21328,0.05109 -0.37199,0.48566 -0.59309,0.70261c-0.16724,0.16535 -0.36666,0.13947 -0.42051,0.22989c-0.07287,0.12142 -0.00551,0.24283 -0.02702,0.32031c-0.00551,0.02588 -0.07287,0.16535 -0.19426,0.33325c-0.24527,0.33836 -0.66045,0.81636 -0.71448,1.24515c0.01884,-0.24283 0.00551,-0.24794 0.07287,-0.51665l-0.04052,-0.06454l0.2666,-0.83697l0.17258,-0.68967l0.38568,-1.15489l0.67929,-1.18044l0.66063,-0.70789l0.68746,0.04393l0.08087,0.98937l0.39367,1.8575l0.82769,0.97643l-1.32658,0.85536l-0.52573,0.04393l0,0l0.00053,0z"/>
      <path stroke="null" fill="#e5c66b" fill-rule="evenodd" d="m75.0625,26.5951s-0.11321,0.02588 -0.15374,0.00528s-0.08069,-0.04393 -0.06736,-0.06982s0.0862,-0.06965 0.0862,-0.09042a0.07554,0.07237 0 0 0 -0.06736,-0.07748c-0.06203,-0.00766 -0.08087,0.03099 -0.08087,0.03099s-0.05936,-0.04376 -0.1077,-0.05109a0.74523,0.71402 0 0 1 0.0862,-0.00528a0.84049,0.80529 0 0 0 -0.2346,-0.06454c0.06736,-0.03866 0.19959,-0.15241 0.28579,-0.15241s0.14023,-0.01277 0.12672,-0.05671s-0.08087,-0.10847 -0.15356,-0.13436c0.02684,-0.03099 0.04585,-0.07748 -0.01884,-0.20435c-0.06754,-0.12652 -0.04052,-0.21184 -0.01884,-0.24266c0.01884,-0.03883 0.0862,-0.10847 0.11855,-0.15241s0.05936,-0.10336 0.11321,-0.13436c0.02702,-0.01805 0.11321,-0.05109 0.19959,-0.08259c0.09438,-0.03099 0.17258,-0.06982 0.22643,-0.03099c0.05936,0.03866 0.03235,0.09042 0.03235,0.09042s0.18608,-0.06471 0.35315,0.01805c0.16724,0.07731 0.57443,0.12652 0.57443,0.12652l0.14592,0.28166l-0.96526,0.79303l-0.39901,0.19123l-0.08087,0.01277l0,0l-0.00053,-0.00051z"/>
      <path stroke="null" fill="#e6bd62" fill-rule="evenodd" d="m76.40242,25.29869s-0.2993,0.19123 -0.36666,0.26088c0.04034,0.00528 0.1077,0.03116 0.08069,0.06982c-0.03235,0.03866 -0.22643,0.17301 -0.33431,0.29971c-0.11321,0.12652 -0.2211,0.28677 -0.25878,0.36425c-0.04034,0.06965 -0.34782,0.27382 -0.45286,0.29954c0.2211,0 0.66596,-0.26088 0.83302,-0.26088c-0.00533,0.07748 0.04585,0.16535 0.14023,0.17301s0.36666,0.05688 0.73332,-0.16007c0.36666,-0.21184 0.24545,-0.36953 0.39901,-0.47272c0.29397,-0.18612 0.41251,-0.35147 0.57425,-0.45467s0.24545,-0.12669 0.24545,-0.12669s0.00533,-0.07748 0.05332,-0.06965a0.07251,0.06948 0 0 1 0.05936,0.04393s0.28046,-0.19123 0.63983,-0.24283a0.03732,0.03576 0 0 1 -0.01884,-0.01805s0.02684,-0.01294 0.03235,-0.02588c0,0 0.01884,-0.02588 0.03235,-0.01294s0.03235,0.10847 0.05936,0.1473c0.05936,-0.02588 0.17258,-0.26871 0.17258,-0.26871l0.27246,-0.74654l0,-0.682l-0.21328,0.03883l-1.59958,0.65084l-0.97077,0.96366l-0.11321,0.22989l0.00071,0z"/>
      <path stroke="null" fill="#b6933f" fill-rule="evenodd" d="m81.00742,21.95338a0.90412,0.86626 0 0 0 0.24616,-0.0957c-0.03235,0.08276 -0.03235,0.17318 -0.17258,0.36953s-0.14556,0.22478 -0.25878,0.42879c-0.11321,0.21184 -0.12672,0.51665 -0.2346,0.65084a0.49303,0.47238 0 0 1 0.15356,-0.04376s-0.1077,0.09042 -0.15356,0.18595s-0.12672,0.29443 -0.32614,0.41601s-0.45304,0.1989 -0.72532,0.48566c-0.27246,0.28149 -0.55274,0.63807 -0.69315,0.7663c0.07287,-0.12142 0.17258,-0.36425 0.19959,-0.52432s-0.00551,-0.35147 0.04034,-0.56314s0.04585,-0.36425 0.2666,-0.73377s0.5986,-1.65333 0.5986,-1.65333l0.81418,-0.24794l0.24545,0.55803l0,0l-0.00036,0.00085z"/>
      <path stroke="null" fill="#c49937" fill-rule="evenodd" d="m80.41967,21.48066s-0.24527,0.33836 -0.31263,0.63807s-0.00551,0.27382 -0.04585,0.42112a0.57318,0.54918 0 0 0 0,0.27382a1.01467,0.97217 0 0 1 0.33929,-0.32048c0.23194,-0.13419 0.42069,-0.22989 0.53319,-0.34347c0.11321,-0.12142 0.20759,-0.32031 0.45286,-0.47272c-0.09971,-0.01294 -0.23994,-0.05688 -0.2666,-0.05109c0.09988,-0.10847 0.39901,-0.27382 0.70097,-0.47272c0.2993,-0.20435 0.28046,-0.28677 0.76584,-0.49077c-0.15907,0.02588 -0.2346,-0.01294 -0.36684,0c0.05332,-0.10847 0.23994,-0.16024 0.42655,-0.33836s-0.11855,-0.44173 -0.11855,-0.44173l-1.42185,0.82402l-0.68746,0.77498l0.00107,-0.00068z"/>
      <polygon stroke="null" fill="#dfc068" fill-rule="evenodd" points="76.56181335449219,20.865510433912277 76.59415435791016,20.617570370435715 77.00133514404297,19.992448300123215 77.42735290527344,18.894601315259933 77.42735290527344,17.393685787916183 77.39501190185547,16.52572962641716 77.46239471435547,15.957303494215012 77.5135726928711,15.776627987623215 77.56757354736328,15.706813305616379 77.91524505615234,15.879825085401535 78.3952865600586,16.504945248365402 78.44112396240234,17.711442440748215 77.97459411621094,19.615258663892746 76.64266204833984,21.007699459791183 76.56181335449219,20.865510433912277 "/>
      <path stroke="null" fill="#a88f33" fill-rule="evenodd" d="m77.62112,15.63723s-0.21328,0.00528 -0.25878,0.85519s-0.06754,1.29674 -0.09988,1.71787s-0.1077,0.67672 -0.14556,0.92483s-0.05936,0.5863 -0.18057,0.79303c-0.05332,0.09553 -0.16724,0.39524 -0.4342,0.62002c-0.2993,0.24794 -0.74647,0.42112 -0.81418,0.43406c-0.11872,0.02571 -0.71999,0.08259 -0.96526,0.21184c-0.0862,0.04393 -0.2346,0.09553 -0.39901,0.24283c-0.32631,0.28149 -0.76033,0.7852 -1.07314,1.39228c-0.47987,0.90678 -0.95975,3.46672 -0.95975,3.46672l0.10788,-0.17301s0.01351,-0.22989 0.25344,-0.63296c0.2346,-0.4029 0.16724,-0.85502 0.49338,-1.62744c0.12672,-0.29443 0.28579,-0.67672 0.47987,-1.00232c0.30747,-0.5296 0.67946,-0.98426 1.0543,-1.2322c0.61193,-0.4029 1.28606,-0.49077 1.28606,-0.49077l0.72532,-0.45978s0.12672,-0.235 0.29397,-0.50371c0.23443,-0.37702 0.53319,-0.79814 0.59842,-1.41033c0.09988,-0.90678 -0.14023,-1.50092 -0.12672,-2.03818s0.01884,-0.9325 0.13223,-1.0282s0.03235,-0.05943 0.03235,-0.05943l0,0l-0.00018,-0.00034z"/>
      <path stroke="null" fill="#c99e3d" fill-rule="evenodd" d="m77.62112,19.69298s0.31992,-0.75438 0.46637,-1.42344c0.02702,-0.13436 0.08087,-0.26854 0.09438,-0.37702c0.06736,-0.63296 0.0862,-0.89384 0,-1.24004c-0.06736,-0.25543 -0.32614,-0.48566 -0.46103,-0.66412c-0.13205,-0.18612 -0.19408,-0.25543 -0.16707,-0.2946s0.13205,-0.10319 0.23443,-0.09553a0.80281,0.76919 0 0 1 0.57443,0.25543c0.20759,0.22989 0.37199,1.01015 0.37199,1.01015l0.17293,1.02956l0.43953,1.29674l-1.72559,0.50388l0,0l-0.00036,-0.00102z"/>
      <path stroke="null" fill="#b58634" fill-rule="evenodd" d="m80.62726,18.90778s-0.05936,0.02571 -0.16707,0a0.24047,0.2304 0 0 1 -0.10788,0.21695c-0.11321,-0.04393 -1.17302,0.04393 -1.17302,0.04393s-0.49338,-0.08276 -0.64712,-0.70789c-0.1077,-0.41601 0.08087,-0.98937 0.01884,-1.36656c-0.09438,-0.55548 -0.22643,-0.66412 -0.23994,-0.83697s-0.02702,-0.21695 -0.02702,-0.32542c-0.05936,-0.01294 -0.09438,-0.03099 -0.15356,-0.03099c-0.01351,-0.05109 0.01333,-0.0957 -0.04585,-0.18612c0.03235,0.01294 0.25344,0.03883 0.51222,0.27382c0.21328,0.19123 0.21328,0.26088 0.24545,0.29971c0.04034,0.03866 0.36666,0.30652 0.50689,0.57353s0.41251,1.11845 0.47454,1.25792c0.01884,0.05688 0.05936,0.11375 0.15996,0.24283c0.1564,0.18612 0.3855,0.49384 0.64427,0.54492l0,0l-0.00071,0.00034z"/>
      <path stroke="null" fill="#a88f33" fill-rule="evenodd" d="m78.88034,16.30118a7.47145,7.15857 0 0 1 0.43935,0.78537c0.15907,0.34347 0.25344,0.62513 0.45304,0.85502c-0.10788,-0.29954 -0.2993,-0.88856 -0.41251,-1.09785c-0.12672,-0.22137 -0.3855,-0.45978 -0.47987,-0.54237l0,0l0,-0.00017z"/>
      <path stroke="null" fill="#e6c367" fill-rule="evenodd" d="m77.04687,20.54817s-0.27228,0.06454 -0.77917,0.32031c-0.16724,0.08259 -0.32614,0.15224 -0.47987,0.21695c-0.39936,0.17301 -0.82769,0.33291 -1.16751,0.42112c0.02702,0.03099 0.04034,0.04376 0.04034,0.04376s0,0.12669 0.07287,0.1989c-0.04034,0.03883 -0.57976,0.39013 -0.42051,1.56546c0.1077,-0.03866 0.23443,-0.09042 0.25327,-0.09042c0.03252,0.00528 0.04052,0.09042 0.08087,0.09042s0.17258,-0.05109 0.31281,-0.22478c-0.00533,0.06982 -0.0862,0.77243 0.34782,1.24515c0.08087,-0.09042 0.28579,-0.39013 0.28579,-0.39013l0.00533,-0.09553s0.01884,-0.33325 0.13223,-0.63807s0.33431,-0.5296 0.33431,-0.5296l1.15365,-1.5784l-0.17258,-0.55531l0,0l0.00036,0.00017z"/>
      <path stroke="null" fill="#dcba5a" fill-rule="evenodd" d="m75.9684,22.86579a0.63734,0.61065 0 0 1 -0.17258,0.08259c-0.01884,-0.06454 -0.04585,-0.28677 0.11321,-0.50371c0.18608,-0.26105 0.59309,-0.59941 0.7063,-0.86847c0.07287,-0.17318 0.04052,-0.60708 0.68764,-1.16256s0.90038,-0.74654 0.90038,-0.74654l1.04612,-0.50371l1.28606,0.48566l-0.63894,2.39936l-0.49605,1.1239l-1.97281,-0.35641l-1.45953,0.04989l0,0l0.00018,0z"/>
      <path stroke="null" fill="#e9ce77" fill-rule="evenodd" d="m76.72144,22.21427l0.24545,-0.29443l0,-0.20928s0.27228,-0.06982 0.56607,-0.35658s0.70097,-0.83697 1.05963,-0.80342c0.35866,0.03883 0.39367,0.74654 0.40718,0.94561s0.05936,0.65084 0.13205,0.89384c0.08087,0.24283 -0.87355,1.16239 -0.87355,1.16239l-0.64818,0.47272l-0.88865,-1.81084l0,0z"/>
      <path stroke="null" fill="#cdae50" fill-rule="evenodd" d="m77.48089,24.66573s0.19959,-0.29971 0.05332,-0.36425c0.0862,-0.18595 0.24527,-0.3823 0.24527,-0.3823s0.11321,-0.26854 0.47987,-0.59924s0.59327,-0.55037 0.65263,-0.77243a2.12388,2.03494 0 0 0 0.05936,-0.44173a0.87515,0.8385 0 0 0 0.12672,0.08259c0.05936,0.02588 0.33964,0.24794 0.2993,0.69495s-0.21328,0.63296 -0.21328,0.63296s-0.16707,0.16007 -0.28561,0.24283c-0.1269,0.08259 -0.17258,0.17812 -0.38568,0.18595a0.25504,0.24436 0 0 1 0.07287,-0.03883s-0.2211,-0.02571 -0.33982,0.07748s-0.3711,0.42112 -0.49782,0.51682c-0.12672,0.07748 -0.2666,0.16535 -0.2666,0.16535l0,0l-0.00053,-0.00017z"/>
      <path stroke="null" fill="#d2a83e" fill-rule="evenodd" d="m86.44563,19.64121a3.24696,3.11099 0 0 0 -0.99209,-0.18595c-0.56625,-0.01805 -1.39394,0.01294 -2.20546,0.01805c-0.87355,0.00511 -1.66623,-0.28677 -2.7662,-0.33836c-0.18057,-0.10336 -0.63983,-0.55548 -2.07341,0.4029c0.0862,-0.00511 1.04079,-0.21184 1.37226,0.18612c0.33431,0.39524 0.23994,1.06685 0.19426,1.22693c-0.08638,0.35658 -0.36684,0.87579 -0.47987,1.24004s-0.08638,0.55565 -0.16724,0.81108s-0.25878,0.3823 -0.15374,0.67672c0.14023,-0.08259 0.21328,-0.08259 0.44753,-0.5863s0.18608,-0.86285 0.57443,-1.28908c0.38017,-0.42879 1.01307,-1.01526 1.25371,-1.16256s2.15143,-1.09785 4.15215,-0.19106c0.48254,-0.04904 0.84387,-0.8087 0.84387,-0.8087l0,0l-0.00018,0.00017z"/>
      <path stroke="null" fill="#c29637" fill-rule="evenodd" d="m79.21447,19.28974a0.24705,0.2367 0 0 0 -0.01333,-0.05688a0.43277,0.41465 0 0 0 -0.07287,-0.10336s-0.47454,-0.08259 -0.71448,-0.05688c-0.42069,0.04393 -0.80086,0.54254 -0.97876,0.79831s-0.39901,0.65084 -0.63894,0.85502a0.08887,0.08514 0 0 0 -0.01351,-0.05688s0.01351,0.01805 -0.01333,0.04393s-0.02702,0.03866 -0.01351,0.05109l0.04052,0.03866c0.01333,0 0.3855,-0.16024 0.89239,-0.61304c0.53924,-0.47272 0.95175,-0.71521 1.16751,-0.79831a1.64223,1.57346 0 0 1 0.35848,-0.10166l0,0l-0.00018,0z"/>
      <path stroke="null" fill="#ac8132" fill-rule="evenodd" d="m88.41933,17.34743s-0.08638,0.10319 -0.19426,0.21695c-0.23994,0.24283 -0.55274,0.51648 -0.81969,0.79814c-0.25327,0.26871 -0.53906,0.478 -0.86004,0.8293s-0.69315,0.74126 -0.78735,0.85502c-0.0862,0.11375 -0.15356,0.29971 -0.15356,0.39524c-0.04585,-0.03099 -0.09971,-0.06454 -0.09971,-0.06454a0.67733,0.64897 0 0 0 0.08087,0.11375c0.06736,0.09042 0.1724,0.20435 0.22643,0.27382a0.87088,0.83441 0 0 1 0.14005,0.29443c0.03235,0.00511 0.23994,0.04393 0.49889,-0.36425s0.59842,-0.85502 0.59842,-0.85502l0.53924,-0.76732l0.33982,-0.65084l0.42655,-0.72849l0.06487,-0.3462l0,0l-0.00053,0z"/>
      <path stroke="null" fill="#a88f33" fill-rule="evenodd" d="m88.97207,16.82567s-0.32631,0.25543 -0.45304,0.40869s-0.42655,0.55548 -0.42655,0.55548l0.10788,-0.01294l0.54741,-0.46489l0.21328,-0.36425l0.01084,-0.12142l0.00018,-0.00068z"/>
      <path stroke="null" fill="#a67a2e" fill-rule="evenodd" d="m88.87219,37.35475s-0.00533,-0.21184 0.11872,-0.33836c0.12672,-0.12669 0.44753,-0.31265 0.76033,-1.01015s0.34764,-0.85502 0.34764,-0.85502s-0.56074,0.45978 -0.90643,0.56825c0.08087,-0.16024 0.12672,-0.27382 0.16724,-0.35658c-0.04585,-0.03866 -0.23994,-0.08259 -0.25878,-0.10319c0.1077,-0.10336 0.16707,-0.35658 0.3855,-0.52449c0.28046,-0.20435 0.79268,-0.55548 1.1908,-0.86847s1.18084,-1.04097 1.28073,-1.25281c0.05936,0.08259 0.07269,0.13419 0.07269,0.13419s-0.3935,0.49094 -0.59842,0.80342c-0.18075,0.26871 -0.16724,0.42112 -0.16724,0.42112l0.37217,-0.15326s0.1077,0.3823 -0.38017,0.96366c0.21328,-0.07748 0.2993,-0.03099 0.42051,-0.0957c-0.19959,0.12159 -0.47454,0.28694 -0.73332,0.74143c-0.25344,0.45467 -0.5986,0.98426 -1.18084,1.31479c-0.56625,0.34875 -0.89256,0.60963 -0.89256,0.60963l0,0l0.00142,0.00153z"/>
      <path stroke="null" fill="#8c6228" fill-rule="evenodd" d="m87.41089,19.9101s-0.2211,0.44156 -0.25344,0.7852c-0.00533,0.08276 -0.02702,0.1473 -0.02702,0.24283c-0.00533,0.30737 0.01884,0.65101 -0.05332,0.81108c-0.02702,-0.06454 -0.04052,-0.10847 -0.06754,-0.13419c-0.04034,0.10847 -0.11321,0.44684 -0.17258,0.57336c-0.02684,-0.08259 -0.0862,-0.36935 -0.08069,-0.70772s0.01333,-0.40307 0.01333,-0.47272c-0.01333,0.10319 -0.0862,0.24283 -0.11321,0.32542c-0.04034,-0.06965 -0.0862,-0.16007 -0.14023,-0.235c-0.03235,0.05109 -0.07269,0.12652 -0.1077,0.16535c-0.00551,-0.03099 -0.01884,-0.11375 -0.02702,-0.22989c-0.00533,-0.13436 -0.01351,-0.30737 -0.00533,-0.34364c0.01333,-0.06965 0.12672,-0.34347 0.36666,-0.59414c0.28579,-0.29971 0.57976,-0.87562 0.66596,-1.05391s0.45286,-0.91956 0.45286,-0.91956l0.28046,0l-0.40718,0.88856s-0.24527,0.48566 -0.37199,0.66412s-0.39367,0.68984 -0.5124,0.88873c0.0862,-0.10847 0.15907,-0.16535 0.24545,-0.26871c0.08353,-0.07237 0.31529,-0.38485 0.31529,-0.38485l0,0l-0.00036,-0.00034z"/>
      <path stroke="null" fill="#cba94c" fill-rule="evenodd" d="m88.9774,16.79195a1.16076,1.11215 0 0 1 -0.21328,0.36953c-0.16724,0.19123 -0.52591,0.44684 -0.70097,0.65084c-0.15996,0.1989 -0.47987,0.74143 -0.33449,1.38461c0.05332,-0.13947 0.15374,-0.41584 0.42069,-0.72849s0.55274,-0.67162 0.69315,-0.95055c0.14005,-0.28166 0.15889,-0.50371 0.15889,-0.50371l0.05332,-0.06454l-0.03235,-0.1473l-0.04585,-0.01039l0.00089,0z"/>
      <path stroke="null" fill="#a88f33" fill-rule="evenodd" d="m94.43712,33.92668s-0.10788,-0.28149 -0.14023,-0.53726s0.05332,-0.30652 -0.04585,-0.59924c-0.05936,-0.17829 -0.16707,-0.15326 -0.19408,-0.17829s-0.04585,-0.29443 -0.04052,-0.44173s-0.00533,-0.33836 -0.03235,-0.42112c-0.04034,-0.03099 -0.06736,-0.05688 -0.12672,-0.24794c-0.06736,-0.19123 -0.09971,-0.28677 -0.13205,-0.34347s-0.1269,-0.10847 -0.1269,-0.16535c0,-0.11375 0.10788,-0.17301 0.10788,-0.20435c-0.00533,-0.06454 -0.0862,-0.01277 -0.10788,-0.03099c-0.02684,-0.03099 0.06754,-0.21695 0.03252,-0.24283c-0.01351,-0.01277 -0.10788,0.0957 -0.13223,0.06471c-0.02702,-0.03116 -0.05936,-0.33853 -0.10788,-0.54254c-0.04568,-0.1989 -0.09438,-0.34347 -0.09971,-0.4029c-0.00533,-0.05688 -0.37217,-1.05919 -0.46103,-1.30202a6.42479,6.15574 0 0 1 -0.18057,-0.62513c-0.02702,-0.12142 -0.04585,-0.36953 -0.05936,-0.34364s-0.00533,0.15241 -0.02702,0.1473c-0.01884,-0.00528 -0.0862,-0.44684 -0.1077,-0.51665c-0.01884,-0.06982 -0.13223,-0.30652 -0.15996,-0.47783c-0.02702,-0.17318 -0.0862,-0.6253 -0.12672,-0.93267s-0.05936,-0.43389 -0.05936,-0.51086a3.3225,3.18336 0 0 0 -0.03235,-0.56314c-0.05332,-0.32559 -0.15996,-0.72083 -0.25344,-0.95055c-0.18057,-0.43406 -0.66063,-1.54485 -0.74647,-1.82123c0,-0.06982 0.09438,-0.03099 0.09438,-0.03099s0.23443,0.56314 0.407,0.99704c0.16724,0.43406 0.32631,0.81636 0.36684,0.85519c0.03235,0.03866 0.28579,0.46489 0.39901,1.16239s0.15356,1.34068 0.2211,1.76946c0.03235,0.20435 0.05936,0.42112 0.12672,0.63807c0.07269,0.23517 0.18591,0.478 0.33431,0.84991c0.12672,0.31265 0.2211,0.57353 0.27228,0.79831c0.05936,0.28677 0.05936,0.50371 0.09438,0.6459c0.03252,0.12142 0.08087,0.36408 0.19426,0.71521s0.28028,0.80342 0.3935,1.08491c0.22127,0.56314 0.31992,1.03331 0.35333,1.28397c0.0295,0.25833 0.12939,1.15217 0.10237,1.42071l0,0l0.00053,-0.00034z"/>
      <path stroke="null" fill="#be9c44" fill-rule="evenodd" d="m88.99091,16.76096l-0.01351,0.03099s0.04034,0.01294 0.03235,0.06471a1.61202,1.54451 0 0 1 -0.01351,0.21184c-0.01333,0.09042 -0.04034,0.16007 -0.04568,0.21695c0,0.12142 0.01884,0.26088 -0.15996,0.60708c-0.05332,0.09553 -0.0862,0.17812 -0.11321,0.235c-0.06736,0.13947 -0.08087,0.16024 -0.14023,0.22478c0.09438,-0.05109 0.4342,-0.25543 0.6066,-0.22478c-0.11855,0.06454 -0.2993,0.19123 -0.41251,0.35658c0.02702,0.00511 0.14023,0.02588 0.31992,0c0.2993,-0.04393 0.63361,-0.1473 0.9274,-0.12669c0.32098,0.01805 0.19426,-0.36935 0.19426,-0.36935l-0.37039,-0.78009l-0.70097,-0.47255l-0.11055,0.02571l0,-0.00017z"/>
      <path stroke="null" fill="#a17c34" fill-rule="evenodd" d="m90.81887,22.6044s-0.31281,-0.29971 -0.43953,-1.32825c-0.12672,-1.03331 -0.09971,-2.55432 -0.09971,-2.55432l-0.25344,-0.59414s-0.05332,-0.39524 -0.18608,-0.54237s-0.3935,-0.39524 -0.51222,-0.51665s-0.25344,-0.28677 -0.33431,-0.31265c0.04034,-0.06454 0.2211,-0.42879 0.91389,-0.43389s0.90643,0.36425 0.97876,0.4986s0.39901,0.71521 0.52022,1.82208c0.11321,1.10551 0.11872,1.18827 0.09988,1.57057c-0.01351,0.21184 -0.08638,0.70261 -0.21328,1.22693c-0.11588,0.44445 -0.2426,0.9405 -0.47454,1.16511l0.00036,-0.00102z"/>
      <path stroke="null" fill="#8c6228" fill-rule="evenodd" d="m89.83798,23.4853a0.52946,0.50729 0 0 0 0.2993,-0.06471c0.09971,-0.00511 0.46103,0.03883 0.73865,-0.29954c0.01884,0.07731 0.06754,0.28677 -0.05936,0.47272c0.06754,-0.06471 0.16724,-0.09042 0.18075,-0.10847c0.00533,0.09553 0.09971,0.38996 -0.2993,1.10551c0.1077,-0.11358 0.23443,-0.10847 0.34764,-0.12142c0.00551,0.13436 0.08087,0.5863 -0.11855,0.8293c-0.13205,0.16535 -0.34782,0.11358 -0.34782,0.11358a0.67804,0.64965 0 0 0 0,-0.10847c-0.00533,-0.06982 -0.03235,-0.13947 -0.01333,-0.18595a0.96721,0.92671 0 0 1 -0.28046,-0.18612c-0.2346,-0.21184 -0.53924,-0.57336 -0.56074,-0.84207c-0.02702,-0.29971 0.25344,-0.36425 0.25344,-0.36425a0.29983,0.28728 0 0 1 -0.05936,-0.06982c-0.01351,-0.04376 -0.02702,-0.11358 -0.08087,-0.17029l0,0z"/>
      <path stroke="null" fill="#92723a" fill-rule="evenodd" d="m87.75853,20.23552s-0.01351,-0.01805 -0.0862,0.06454c0.01351,-0.08259 0.02702,-0.16024 0.03235,-0.23517a0.846,0.81057 0 0 1 0.13223,-0.19106c-0.04052,0.07731 -0.06754,0.14713 -0.06754,0.14713s0.09988,-0.17829 0.24545,-0.28677c0.09971,-0.07748 0.22643,-0.11358 0.28028,-0.18595c0.05936,-0.07748 0.04585,-0.09042 0.05936,-0.10336c0,0 0.13223,-0.08259 0.33449,-0.32559c0.02684,-0.03099 0.06736,-0.06454 0.09438,-0.09553c0.04568,-0.01805 0.15356,-0.06454 0.28028,-0.12669c0.13223,-0.06965 0.28046,-0.16518 0.37217,-0.20435c0.18057,-0.07748 0.37217,-0.06965 0.46103,-0.19123c0.06736,-0.01805 0.14005,-0.21184 0.12672,-0.37702c0.09971,0.03866 0.61193,0.34347 0.78735,1.00998c0.12672,0.47272 -0.09988,1.20121 -0.19426,1.55269s-0.1077,0.61219 -0.23994,0.77226c-0.16724,0.21201 -0.7063,0.51086 -0.83853,0.65884c-0.11321,0.12142 -0.45286,0.42879 -0.43953,0.65084c0.01351,0.16535 0.22643,0.25543 0.27246,0.28677s0.04568,0.06982 0.13205,0.05109s0.11855,-0.05688 0.15374,-0.05688c0.04034,0.00511 0.04034,0.01294 0.05918,0.01294a0.19444,0.1863 0 0 0 0.04052,-0.00528s-0.01351,0.23517 -0.58776,0.30652c-0.04052,0.00528 -0.08087,0.01805 -0.13223,0.02588c0.06754,-0.03099 0.10788,-0.03099 0.18075,-0.12652c-0.08087,-0.01294 -0.31281,-0.02588 -0.37217,-0.04393c0.01884,-0.03099 0.08087,-0.11375 0.13205,-0.15241c0.04585,-0.03866 -0.00533,-0.05109 -0.04568,-0.03099a2.15854,2.06815 0 0 0 -0.19959,0.14713c-0.06736,0.05688 -0.12672,0.13436 -0.2346,0.20435c-0.03235,-0.10336 -0.02702,-0.29971 0.09988,-0.44173c-0.03252,0.00511 -0.09455,0.09553 -0.15374,0.07748a0.85862,0.82266 0 0 1 0.01884,-0.28166c0.03235,-0.11631 0.20759,-0.32031 0.20759,-0.32031l0.84653,-1.44932l0.18057,-1.09785l-1.93851,0.36084l0,0l0,0.00034z"/>
      <path stroke="null" fill="#b18e3e" fill-rule="evenodd" d="m87.71285,20.2975s-0.04585,0.03099 0.04585,0.09042c-0.01351,0.01805 -0.04585,0.08259 -0.08638,0.12652c-0.04568,0.05109 -0.09438,0.08276 -0.11321,0.12669c-0.04034,0.09042 -0.07269,0.15241 -0.07269,0.19123s-0.01351,0.28677 -0.12672,0.44684c-0.04052,0.05688 -0.08638,0.15241 -0.11872,0.21695c-0.06736,0.11358 -0.12672,0.20435 -0.14023,0.25543c-0.02684,0.09042 -0.04568,0.33836 -0.04568,0.33836s0.05936,-0.06982 0.08087,-0.09553c-0.03252,0.06454 -0.06754,0.13419 -0.11872,0.18595c0.03235,-0.02588 0.12672,-0.09042 0.28579,-0.22478c0.2211,-0.17812 0.56625,-0.47783 0.98694,-0.71521c-0.1269,0.04393 -0.2346,0.04393 -0.3208,0.05688c0.06736,-0.06454 0.67396,-0.74654 0.99209,-0.81108a0.1269,0.12159 0 0 0 0.02702,-0.08276l-0.27246,-0.02571l-0.55274,0.11358l-0.08069,-0.40869l-0.3695,0.21439l0,0.00051z"/>
      <path stroke="null" fill="#543e26" fill-rule="evenodd" d="m88.59191,22.62245s-0.07287,0.06965 -0.14023,0.24283a0.84955,0.81398 0 0 1 -0.13223,-0.17318c-0.09971,-0.16007 -0.25327,-0.36425 -0.61193,-0.24794c-0.00533,-0.10847 -0.01351,-0.16535 0,-0.24283c0.05936,-0.01277 0.23994,-0.15224 0.42051,-0.35641c0.1269,-0.13947 0.24545,-0.29971 0.32631,-0.50371c0.05332,-0.03883 0.14556,-0.10336 0.2666,-0.17829c0.17258,-0.11358 0.38017,-0.26871 0.41251,-0.44173c-0.08087,0.03099 -0.25344,0.10847 -0.5124,0.0957c0.09988,-0.04393 0.25344,-0.09042 0.2346,-0.28166c0.04052,-0.02588 0.07287,-0.04393 0.07287,-0.04393a0.2666,0.25543 0 0 0 -0.09438,-0.01294c-0.00551,-0.01805 -0.01351,-0.04376 -0.05936,-0.03099s-0.05332,0.01294 -0.05936,0.03099c-0.01884,0.00528 -0.08087,0 -0.12672,0.03116s-0.17258,0.13419 -0.2211,0.15224c0.01884,-0.03099 0.04568,-0.07731 0.04568,-0.07731s-0.13205,0.01277 -0.22643,0.05109c-0.17258,0.05688 -0.37199,0.16024 -0.57425,0.26088c0.01884,-0.03099 0.02702,-0.05109 0.04034,-0.05688s0.04585,-0.01277 0.04585,-0.01805s-0.01333,-0.05109 -0.00533,-0.06965a2.47366,2.37007 0 0 1 0.21328,-0.3513c0.09438,-0.12159 0.11321,-0.2946 0.11321,-0.2946l0.41251,-0.1989l1.15934,-0.25543l0.75233,0.04393l-0.09438,0.4986l-0.44433,0.87051l-0.38017,0.79303l-0.4342,0.48583l-0.39901,0.27893l0,0l-0.00018,0z"/>
      <path stroke="null" fill="#806031" fill-rule="evenodd" d="m90.47105,20.46473s-0.45304,0.53726 -0.57976,0.62002c0.08087,-0.16535 0.57976,-1.14961 0.76033,-1.42344c-0.04034,-0.03099 -0.09438,-0.03099 0.03235,-0.51086c-0.1077,0.24266 -0.14556,0.36935 -0.23443,0.43389s-0.09988,0.04393 -0.15996,0.04393a0.11268,0.10796 0 0 0 0.01333,-0.06454s-0.38017,-0.04393 -0.63983,-0.04393s-0.77366,0.13436 -1.05963,0.24283c-0.22643,0.09042 -0.35315,0.09042 -0.43402,0.14713c-0.08087,0.06454 -0.12672,0.13436 -0.16724,0.15241c-0.03235,0.01805 -0.18591,0.06454 -0.2211,0.11358c-0.03235,0.05109 -0.0862,0.10847 -0.0862,0.12142s-0.01351,0.03116 0.02702,0.01805c0.01333,-0.00511 0.11321,-0.05688 0.22643,-0.12142c0.15356,-0.08259 0.33964,-0.17812 0.47454,-0.235c0.3855,-0.1473 0.50689,-0.12142 0.67929,-0.15241c0.18057,-0.03099 0.43953,-0.10336 0.61193,-0.10336c0.17258,-0.00511 0.49889,0 0.57443,0.01294c-0.03235,0.02588 -0.05936,0.05688 -0.04585,0.16535c0,0.03099 -0.02702,0.06454 -0.05332,0.13947c-0.08069,0.21184 -0.23443,0.56314 -0.31992,0.74143c-0.11855,0.24266 -0.25327,0.44684 -0.31992,0.57336s-0.21328,0.45978 -0.35848,0.63807s-0.2211,0.28677 -0.2666,0.32559s-0.37217,0.26854 -0.34782,0.3513c0.05936,-0.01805 0.4342,-0.15326 0.7063,-0.44684s0.32631,-0.47272 0.53924,-0.63296s0.38017,-0.42879 0.47987,-0.65084c0.08353,-0.20673 0.06469,-0.27127 0.16973,-0.45467l0,0l-0.00071,-0.00051z"/>
      <path stroke="null" fill="#b6903c" fill-rule="evenodd" d="m80.7083,24.47467s-0.05936,0.235 -0.19426,0.3513c-0.13205,0.11375 -0.36666,0.21184 -0.3935,0.40307c-0.03235,0.19106 0.2346,0.28677 0.2346,0.28677s-0.14574,0.22989 -0.14574,0.4029c0,0.17829 -0.00533,0.21184 0.01351,0.3823a0.17773,0.17029 0 0 0 -0.05332,0.05109s0.01333,0.16535 0.14556,0.26854s0.24527,0.16535 0.31263,0.13947a0.63592,0.60929 0 0 1 0.02702,0.06471s0.09988,-0.24283 0.16724,-0.45467c0.06736,-0.21695 0.12672,-0.18612 0.15356,-0.478s0.31992,-0.79303 0.31992,-0.79303l0.19995,-0.42827l-0.32614,-0.24283l-0.46103,0.04649l0,0.00017z"/>
      <path stroke="null" fill="#685026" fill-rule="evenodd" d="m81.3149,24.89562a1.96286,1.88066 0 0 0 -0.18573,0.21184c-0.0862,0.11375 -0.15356,0.21695 -0.28028,0.26105s-0.20759,0.04376 -0.19959,0.16535s0.12672,0.17301 0.19408,0.235c0.07287,0.06454 0.13223,0.17301 0.09988,0.2946c0.04034,-0.01805 0.11321,-0.03883 0.18057,-0.17829s0.53852,-0.98937 0.53852,-0.98937l-0.34746,0l0,-0.00017z"/>
      <path stroke="null" fill="#d4b968" fill-rule="evenodd" d="m83.17307,22.93492s0.04034,-0.10319 0,-0.17812c-0.04052,-0.07748 -0.28579,-0.10336 -0.40718,-0.19123c-0.12672,-0.09042 -0.28046,-0.15326 -0.40718,-0.11358c0.01884,-0.04393 0.09438,-0.13964 0.03235,-0.16024c-0.05936,-0.01805 -0.28028,0.07748 -0.33964,0.12142s-0.19426,0.09553 -0.2211,0.12669s-0.07287,0.09042 -0.09988,0.06454c-0.02702,-0.01805 -0.04034,-0.06454 -0.0862,-0.03883s-0.2666,0.1989 -0.3073,0.29971s-0.13223,0.32559 -0.40718,0.58119s-0.39367,0.42112 -0.31281,0.51665s0.11872,0.02588 0.13223,0.10847a0.7271,0.69665 0 0 1 -0.01351,0.24283c-0.03235,0.13436 -0.0862,0.26088 -0.01351,0.28677c0.18608,0.05688 0.36684,-0.05109 0.40718,-0.01805c0.08087,0.06965 -0.04585,0.32031 0.14556,0.36935c0.19426,0.05109 0.38568,-0.04393 0.38568,-0.04393l0.7063,-0.36425l0.67946,-0.34347l0.34764,-0.65884l-0.18644,-0.5502l-0.03555,-0.05688l0.00107,0z"/>
      <path stroke="null" fill="#cca849" fill-rule="evenodd" d="m82.50658,24.50822s-0.11872,-0.17301 0.02702,-0.32559s0.35315,-0.21695 0.43402,-0.31248a0.12441,0.1192 0 0 0 -0.05936,-0.03866a0.53692,0.51444 0 0 1 0.2346,-0.21201c-0.04034,-0.03866 -0.09438,-0.06965 -0.15356,-0.06965c-0.13223,0 -0.21328,0.07748 -0.33449,0.07748c-0.11855,0 -0.13205,-0.05688 -0.13205,-0.05688s0.19959,-0.01805 0.18057,-0.10336c-0.01884,-0.09042 -0.05332,-0.09042 -0.05332,-0.09042s0.3855,-0.15326 0.45286,-0.235s0.05936,-0.17829 0.07287,-0.21695c0.04568,0 0.31263,-0.13436 0.42051,-0.07748s0.03235,0.21184 0.03235,0.21184s0.32649,-0.23517 0.49285,-0.46574c0.14556,0.01294 0.21328,-0.09553 0.31992,-0.09553c0.13223,0 0.33982,0.17301 0.38017,0.54237c0.02702,0.21184 0.06736,0.33325 0.02702,0.70789c-0.01884,0.21184 -0.01351,0.66412 0.05332,0.88856c0.04568,0.17829 0.15356,0.16024 0.15356,0.16024a0.30214,0.28949 0 0 1 -0.09438,0.13947c-0.07287,0.06454 -0.08087,0.23517 -0.07287,0.29971a1.33298,1.27716 0 0 0 0.04052,0.13947s-0.0862,0.09553 -0.10788,0.16024c-0.01884,0.06454 -0.1077,0.10847 -0.17258,0.10847s-0.03235,-0.00528 -0.11855,0s-0.11321,0.01805 -0.16724,0s-0.09438,-0.03883 -0.07269,-0.20435c0.01884,-0.16535 -0.66596,-0.5502 -0.66596,-0.5502l-1.1197,-0.3823l0,0l0.00249,0.00085z"/>
      <path stroke="null" fill="#585136" fill-rule="evenodd" d="m81.22052,26.14077s0.24527,0.31265 1.25371,0.31265c0.47987,0 0.64712,-0.04393 0.74647,-0.06982c0.10788,-0.02588 0.51222,-0.17812 0.9194,-0.63807c0.36666,-0.41584 0.28579,-0.5863 0.28579,-0.5863l-0.21328,-0.03099l-0.69315,0.09042l-2.05101,0.83697l-0.24882,0.08514l0.00089,0z"/>
      <path stroke="null" fill="#252211" fill-rule="evenodd" d="m81.97268,26.21825s-0.87355,0.18612 -0.87355,-0.34347c0,-0.51665 0.53924,-1.05919 0.67413,-1.15472c0.14023,-0.0957 0.47454,-0.20435 0.47454,-0.20435l0.80619,0l0.15356,0.39013l-0.06736,0.84207l-1.16751,0.47017l0,0.00017z"/>
      <path stroke="null" fill="#c3b378" fill-rule="evenodd" d="m82.77886,24.67357s-0.16707,-0.1473 -0.54723,0.05109s-0.68764,0.61304 -0.70648,0.98954c-0.01884,0.33308 0.28579,0.58119 0.76033,0.59414c0.35315,0.01277 0.56625,-0.02588 0.67413,-0.05109c-0.02702,-0.03099 -0.16724,-0.1989 -0.16724,-0.1989l-0.01333,-1.38461l0,0l-0.00018,-0.00017z"/>
      <path stroke="null" fill="#e6d89c" fill-rule="evenodd" d="m82.61446,24.75599s-0.04034,-0.03099 -0.15996,0.03099c-0.09971,0.05109 -0.24527,0.18612 -0.35848,0.28166c-0.07287,0.05688 -0.11872,0.08259 -0.15996,0.12652c-0.16724,0.19123 -0.30747,0.50388 -0.22643,0.65884s0.34782,0.33325 1.02728,0.21184l-0.12441,-1.30969l0,0l0.00196,-0.00017z"/>
      <path stroke="null" fill="#252211" fill-rule="evenodd" d="m82.39337,25.07647s-0.10788,0.16024 -0.10788,0.41601c0,0.26088 0.15374,0.67672 0.71999,0.70772c0.43402,0.02588 0.72514,-0.59924 1.04061,-0.84207c0.23994,-0.18595 0.3855,-0.19123 0.3855,-0.19123s-0.24527,-0.25543 -0.90038,-0.5863c-0.64712,-0.33325 -1.37244,-0.37719 -1.76611,0.13436c0.18608,-0.01294 0.78735,-0.16024 0.78735,-0.16024l0.29397,0.09042l-0.45304,0.43151l0,0l0,-0.00017z"/>
      <path stroke="null" fill="#6f674d" fill-rule="evenodd" d="m83.2399,25.41483c-0.01884,-0.03866 -0.03235,-0.09042 0.04585,-0.10319s0.11321,-0.00528 0.14023,0.05109s0.05332,0.10336 0.01333,0.12669c-0.04034,0.0206 -0.14556,0 -0.19959,-0.07493l0.00018,0.00034zm-0.12672,-0.36425s-0.02702,0.01805 -0.01351,-0.01805c0.00533,-0.04376 0.04052,-0.12142 0.12672,-0.10319s0.06754,0.10847 0.05332,0.13436s-0.0862,0.06965 -0.14023,0.05109a0.04497,0.04308 0 0 1 -0.02702,-0.06454l0.00071,0.00034z"/>
      <path stroke="null" fill="#ac924c" fill-rule="evenodd" d="m75.81502,25.21576s0.21328,0.15326 0.46103,0.1473c0.24527,-0.00528 0.56074,-0.24794 0.7063,-0.40307c0.0862,-0.09042 0.15996,-0.18595 0.23994,-0.26088c0.06754,-0.06454 0.11321,-0.09553 0.14556,-0.13947c0.04585,-0.05109 0.09438,-0.14713 0.11872,-0.17829c-0.05936,0.04393 -0.14556,0.12159 -0.2346,0.17318c-0.0862,0.05109 -0.27228,0.14713 -0.34782,0.17301c-0.07269,0.02588 -0.82769,0.40869 -0.82769,0.40869l-0.26144,0.07952l0,0z"/>
      <path stroke="null" fill="#9f8e57" fill-rule="evenodd" d="m76.14097,23.307s0.11855,-0.07748 0.34782,-0.12669c0.2211,-0.05109 0.66596,-0.09042 0.66596,-0.09042l0.36666,0.15326l0.14556,0.5296l-0.2666,0.55037l-0.33964,0.20435l-0.38568,-0.59414l-0.53319,-0.6253l0,0l-0.00089,-0.00102z"/>
      <path stroke="null" fill="#eac970" fill-rule="evenodd" d="m75.6611,23.77972l-0.1269,0.09076s0.03252,-0.05688 0.05936,-0.22989s0.16724,-0.59414 0.37217,-0.83697s0.19959,-0.22989 0.19959,-0.22989a0.1349,0.12925 0 0 0 -0.10788,0.02571c0.02702,-0.05722 0.19959,-0.26156 0.37217,-0.36374s0.23994,-0.13436 0.42051,-0.05109s0.22643,0.12652 0.35866,0.12142s0.24527,-0.13947 0.24527,-0.13947s0.02702,0.08259 -0.07269,0.27382s-0.49338,0.58119 -0.49338,0.58119l-0.81969,0.53726l-0.40718,0.22137l0,0l0,-0.00051z"/>
      <path stroke="null" fill="#d7bc6b" fill-rule="evenodd" d="m76.26752,23.24246s0.59327,0.07748 0.77384,-0.08259c0.00533,0.01805 0.02702,0.01805 0.02702,0.03099a0.0471,0.04513 0 0 1 -0.01351,0.02571a0.43437,0.41618 0 0 1 0.05936,-0.00511a0.35013,0.33547 0 0 0 0.07287,0.01294a0.42069,0.40307 0 0 0 0.05936,-0.00528a0.10077,0.09655 0 0 1 -0.04052,0.06471c0.02702,0 0.05332,0.00511 0.05332,0.02571s0.00533,0.08276 -0.02702,0.0957a0.12228,0.11716 0 0 1 -0.08087,-0.00528a0.33271,0.31878 0 0 0 0.04052,0.13964c0.05332,0.09553 0.16707,0.20435 0.31992,0.17301c0,0 0.08069,0.18595 -0.25895,0.59924c-0.04568,0.05688 -0.09438,0.13436 -0.15356,0.1989a0.7877,0.75472 0 0 0 -0.05332,0.15241s0.57443,-0.21184 0.73883,-0.69495c0.16724,-0.48566 0.19959,-0.96349 0.16724,-1.41033c-0.00551,-0.12669 -0.02702,-0.21695 -0.05936,-0.28166c-0.08087,-0.16024 -0.30747,-0.13436 -0.39901,-0.04393c-0.13223,0.12669 -0.35333,0.44173 -0.66063,0.65867c-0.31281,0.21695 -0.32614,0.25543 -0.56625,0.35147l0,0l0.00071,0z"/>
      <path stroke="null" fill="#585136" fill-rule="evenodd" d="m75.55588,23.93996s-0.11321,0.06454 -0.17258,0.30652c-0.05936,0.24794 0.05332,0.5502 0.11855,0.64573s0.21328,0.35658 0.5204,0.36953a0.57052,0.54662 0 0 0 0.2211,-0.04393a1.39874,1.34017 0 0 0 0.2993,-0.17829c0.13223,-0.09553 0.23994,-0.17812 0.22643,-0.18595c-0.03235,-0.01294 -0.81418,-0.63296 -0.81418,-0.63296l-0.29397,-0.31435l-0.10522,0.03406l0.00018,-0.00034z"/>
      <path stroke="null" fill="#453a25" fill-rule="evenodd" d="m76.29489,24.96799s0.15907,-0.01277 0.25344,-0.06965s-0.55274,-0.67162 -0.55274,-0.67162l0.04585,0.66412l0.25344,0.07714z"/>
      <path stroke="null" fill="#84754b" fill-rule="evenodd" d="m75.60707,23.89331s-0.08087,0.1473 -0.08087,0.18612c-0.01351,0.12652 0.02702,0.52432 0.05936,0.65084c0.03235,0.13436 0.20759,0.33836 0.4342,0.33836c0.14005,0 0.33431,-0.08259 0.33431,-0.10319c0,-0.02588 -0.19959,-0.05109 -0.25344,-0.1473c-0.03235,-0.05109 -0.04585,-0.17812 -0.05332,-0.30652c-0.00533,-0.08259 -0.00533,-0.17301 0.02702,-0.20435c0.07287,-0.07748 0.0862,-0.29971 0.0862,-0.29971l0.25878,-0.46063l-0.34035,0l-0.40718,0.24283l-0.06469,0.10354z"/>
      <path stroke="null" fill="#252211" fill-rule="evenodd" d="m75.50736,24.0355s0.2666,-0.33836 0.50689,-0.41601s0.34782,-0.03099 0.34782,-0.03099l-0.14023,0.34364l-0.19959,0.21184l0.01351,0.10847s-0.03252,0.28677 0.16707,0.48566s0.34782,0.19123 0.4342,0.19123s0.33431,-0.06982 0.46103,-0.35658c0.11321,-0.26854 0.20759,-0.61304 -0.01884,-0.95838c-0.22127,-0.34364 -0.6121,-0.35692 -0.68764,-0.35692s-0.66862,0.02844 -0.88421,0.77754l0,0l0,0.00051z"/>
      <path stroke="null" fill="#f7f7e7" fill-rule="evenodd" d="m82.35284,25.18494c-0.09971,-0.04393 -0.00533,-0.31248 0.09438,-0.39524s0.22643,-0.17812 0.4477,-0.19123c0.08069,-0.00511 0.15889,0.04393 0.14556,0.0957c-0.01884,0.09553 -0.15907,0.22989 -0.28579,0.32542c-0.17524,0.1318 -0.28863,0.21439 -0.40185,0.16535z"/>
      <path stroke="null" fill="#f8f6de" fill-rule="evenodd" d="m76.96049,23.72029c0.07287,-0.00511 0.16724,0.05109 0.18608,0.12669c0.01884,0.08259 -0.04585,0.24794 -0.18608,0.24794c-0.11321,0 -0.17258,-0.13436 -0.17258,-0.17301a0.20617,0.19753 0 0 1 0.02702,-0.09042c0.00533,-0.00783 0.01884,-0.09826 0.14556,-0.1112z"/>
      <path stroke="null" fill="#d4c38b" fill-rule="evenodd" d="m75.90904,23.77972s-0.18608,0.08259 -0.27228,0.25543a0.70737,0.67775 0 0 0 -0.05332,0.40869c0.01351,0.06454 0.08087,0.22461 0.12672,0.28149s0.10788,0.0957 0.15374,0.09042s0.14005,-0.12142 0.14005,-0.19106s0.00551,-0.36425 0.09438,-0.52449c0.0782,-0.16007 -0.18875,-0.32031 -0.18875,-0.32031l0,0l-0.00053,-0.00017z"/>
      <path stroke="null" fill="#e2d59d" fill-rule="evenodd" d="m75.93605,23.76678c-0.03235,0.01805 -0.0862,0.04393 -0.07287,0.07748c0.01351,0.03099 0.12672,0.05109 0.16724,0.12669c0.04585,0.07748 0.04585,0.16007 0.03235,0.1989a0.32845,0.31469 0 0 0 0.09438,-0.06471c0.05936,-0.06454 0.13205,-0.15224 0.19408,-0.15224c0.04052,0 0.08087,0.01805 0.11872,0.01805c0.05936,0 0.11855,-0.01805 0.12672,-0.07748c0.01333,-0.07748 -0.11321,-0.1473 -0.18608,-0.13436c0.01351,-0.05109 0.03235,-0.12652 -0.02702,-0.17829s-0.24527,0.03883 -0.28579,0.06471s-0.16174,0.12142 -0.16174,0.12142l0,0l0,-0.00017z"/>
      <path stroke="null" fill="#cbac5a" fill-rule="evenodd" d="m80.22025,29.1942l0.39901,-0.1129l0.11321,0.07748s0.08069,0.16535 0.20759,0.18595c-0.04052,0.08259 -0.14574,0.15326 -0.14023,0.21184s0.05936,0.10336 0.05936,0.10336s-0.35866,0.56825 0.34782,1.14093c-0.16724,0.06454 -0.38017,0.15326 -0.49338,0.20435c0.08069,0.01805 0.25327,0.05109 0.32614,0.11375s0.07287,0.08259 0.14023,0.12142s0.1077,0.09042 0.09438,0.11358c-0.04585,-0.02588 -0.19959,-0.10319 -0.22643,-0.03099s-0.66596,0.04393 -0.66596,0.04393l-1.07847,0.1989s0.04034,-0.10336 -0.07287,-0.1989c-0.13205,-0.11358 -0.29379,0.00511 -0.46637,-0.12142c-0.22643,-0.16535 -0.2346,-0.35658 -0.3073,-0.42879c0.07269,-0.04393 0.2211,-0.10847 0.57425,-0.15326c-0.01351,-0.02588 -0.05936,-0.10336 -0.03235,-0.17301c0.03235,-0.09042 0.16707,-0.1473 0.12672,-0.25543c0.05936,-0.01294 0.0862,-0.01294 0.2346,-0.19123c0.14023,-0.17829 0.22643,-0.21695 0.33431,-0.22989s0.17258,0 0.37217,-0.17829c0.14005,-0.12652 0.09438,-0.235 0.09438,-0.235s0.09153,-0.02844 0.05936,-0.20673l0,0l-0.00018,0.00034z"/>
      <path stroke="null" fill="#d6bc6f" fill-rule="evenodd" d="m79.04207,29.25159c0.00533,-0.02588 0.02702,-0.03883 0.17258,-0.02588s1.06763,-0.08259 1.31841,-0.09553c0.25344,-0.01805 1.14583,-0.00528 1.58003,0.08259s0.87355,0.19123 1.08647,0.24283c0.21328,0.05688 0.28046,0.07731 0.27228,0.10319c-0.00533,0.02588 -0.05332,0.05109 -0.08087,0.04393c-0.02684,-0.00511 -0.73332,-0.21184 -0.95157,-0.25543s-0.97343,-0.16024 -1.3863,-0.15326c-0.3855,0.00528 -0.53924,-0.00511 -0.86537,0.03099c-0.32631,0.03883 -0.86555,0.09042 -1.02728,0.06982c-0.15996,-0.01805 -0.1269,-0.01805 -0.11872,-0.04393l0,0l0.00036,0.00068z"/>
      <path stroke="null" fill="#dfc677" fill-rule="evenodd" d="m81.21235,31.27631s0.55274,0.28677 0.75233,0.63807c0.14556,0.26088 -0.0862,0.39013 -0.0862,0.39013s0.31281,0 0.27228,0.16535c-0.01884,0.10319 -0.53924,0.38213 -0.88705,0.52943c-0.35315,0.1473 -0.33964,0.13964 -0.51222,0.16535c-0.16724,0.02588 -0.62561,-0.05109 -0.71999,0.07748s-0.05332,0.26105 -0.02702,0.28166c0.02702,0.01805 0.24545,0.04393 0.24545,0.04393s-0.04585,0.12142 -0.49871,0.13436s-0.56625,0.04376 -0.59327,0.09042c-0.02702,0.04376 0.0862,0.01805 0.29397,0.05109c0.20759,0.03099 0.49871,0.05109 0.49871,0.05109s-0.09438,0.07748 -0.33964,0.13947c-0.28046,0.06965 -0.71999,0.13436 -0.85204,0.21184c0.06736,0.04393 0.16724,0.10847 0.21328,0.11358c-0.11321,0.02588 -0.27246,0.08276 -0.2993,0.10336c0.04034,0.02588 0.09438,0.05688 0.09438,0.05688s-0.22661,0.26088 -0.35866,0.32559s-0.89239,0.4029 -1.15401,0.33836c-0.65245,-0.16535 -0.73332,-0.84991 -0.89239,-0.9015c-0.23994,-0.07748 -0.35315,0.07731 -0.56625,-0.03116c0.09438,-0.06454 0.14574,-0.10319 0.24545,-0.14713c-0.10788,-0.05109 -0.66596,-0.39013 -0.66596,-0.39013a4.13615,3.96294 0 0 0 -0.19408,-0.35641c-0.10788,-0.17829 -0.2666,-0.41601 -0.38568,-0.6253c-0.25878,-0.45978 -0.27228,-0.67162 -0.50689,-0.9325c0.04052,-0.05109 0.18057,-0.04393 0.18057,-0.04393l1.9657,0.62002l3.48548,0.09672l0.90643,-1.23987l0.3855,0.04393l-0.00018,-0.00017z"/>
      <path stroke="null" fill="#c4a859" fill-rule="evenodd" d="m76.04927,33.16719a0.30587,0.29307 0 0 0 0.07269,0.05688c0.06754,0.04393 0.16724,0.0957 0.2346,0.17301c0.02702,-0.03866 0.09438,-0.10847 0.21328,0s0.2666,0.03116 0.35848,0.05688c0.09438,0.03116 0.09971,0.04393 0.09971,0.04393s0.05332,-0.04393 0.17258,-0.09042c0.07287,-0.02588 0.15907,-0.04393 0.25344,-0.06965c0.0862,-0.01805 0.18057,-0.04393 0.24545,-0.04393c0.05936,0.03866 0.27228,0.25543 1.12699,-0.06454c0.80619,-0.29971 0.99209,-0.33325 1.12699,-0.28694c0.01351,-0.03099 0.02702,-0.09042 0.2346,-0.08259c0,-0.08259 -0.17258,-0.36425 -0.17258,-0.36425l-0.95175,-0.31248l-0.52057,0l-1.56101,0.27382l-0.86502,0.47289l-0.06736,0.2384l-0.00053,-0.00102z"/>
      <path stroke="null" fill="#927d49" fill-rule="evenodd" d="m75.52887,32.64288s0.01884,0.13947 0.2346,0.28677c0.21328,0.14713 0.28028,0.235 0.28028,0.235s0.04052,-0.05109 0.07287,-0.10319c0.03235,-0.05688 0.05936,-0.12142 0.11321,-0.13947c0.10788,-0.04393 0.35315,0.03866 0.40718,0.02571c0.04585,-0.01277 0.03235,-0.10319 0.08087,-0.10319c0.11321,-0.00528 0.18591,0.06965 0.22643,0.06965s0.14005,-0.00511 0.15356,-0.02571s0.01884,-0.23517 0.17258,-0.33853c0.16724,-0.11358 0.37217,-0.06454 0.42655,-0.03866c0,0.03866 0.00533,0.13436 0.11321,0.13947s0.11855,-0.01294 0.21328,0.01805s0.20759,-0.00511 0.25878,0.14713c0.04585,-0.01277 0.15374,-0.02571 0.12672,-0.17301c0.05332,-0.03866 0.09988,-0.06454 0.21328,-0.21695c0.02702,-0.03866 0.07269,-0.08259 0.10788,-0.13947c0.09438,0 0.20759,-0.01805 0.35848,0.10847c-0.04585,0.03099 -0.07287,0.05109 -0.0862,0.08259a0.9697,0.92909 0 0 1 0.1077,0.12142c0.04052,0.05109 0.06754,0.11375 0.11872,0.12669c0.11321,0.03099 0.2993,-0.01294 0.50689,0c0.19959,0.01294 0.36666,0.08259 0.43953,0.12652c0.02702,-0.01277 0.02702,-0.01805 0.09438,-0.00511s0.11855,0.01805 0.04585,-0.06454c0.04034,0.01805 0.0862,0.05688 0.12672,0.01805s0.07269,-0.09553 0.18591,-0.10847s0.15374,0.00511 0.19959,-0.10847c0.05936,-0.13947 -0.14556,-0.13947 -0.14556,-0.13947s0.09438,-0.08276 0.19959,-0.19123c0.12672,-0.11358 0.27228,-0.26088 0.3073,-0.44173c0.05936,-0.33325 -0.28028,-0.37702 -0.28028,-0.37702l-1.64739,0.48566l-2.01405,-0.0957l-1.71741,0.81892l0,0l-0.00107,-0.00017z"/>
      <path stroke="null" fill="#6e6342" fill-rule="evenodd" d="m74.04873,28.08341s-0.05332,0.06454 -0.0862,0.21695s-0.01884,0.13436 -0.04585,0.24283s-0.35884,1.18827 -0.23443,1.55252s0.33982,0.4986 0.47454,0.79303c0.02702,0.06454 0.05332,0.10336 0.06736,0.16024c0.04585,0.19106 0.00551,0.33836 0.05936,0.5296c0.01884,0.06454 0.06754,0.13947 0.14023,0.21695c0.15996,0.16007 0.42069,0.31248 0.53319,0.42095c0.15889,0.16024 0.3855,0.48583 0.67396,0.51665c0.15374,0.01805 0.37217,-0.04393 0.55274,-0.14713c0.15996,-0.0957 0.25878,-0.22989 0.42655,-0.30652c0.11855,-0.05688 0.24527,-0.07748 0.35848,-0.10336c0.2346,-0.04393 0.4477,-0.05109 0.57443,-0.02588c0.19408,0.03883 0.65245,0.17318 0.90643,0.17318a2.46566,2.36241 0 0 0 0.58776,-0.07748c0.3855,-0.10847 0.85186,-0.2946 1.15934,-0.37719c0.18057,-0.05109 0.32614,-0.06454 0.47454,-0.09553c0.25344,-0.05688 0.46637,-0.13436 0.58776,-0.28166c-0.08087,-0.09042 -0.18057,-0.22989 -0.71999,-0.22478c-0.61193,0.01294 -1.31841,0.33836 -1.66623,0.39013s-0.49871,0.09553 -0.88705,-0.03883c-0.3807,-0.13572 -0.39332,-0.22546 -0.39332,-0.22546s-0.39972,-0.26786 -0.56696,-0.95072s0,-1.18044 0.4342,-1.65333c0.11321,-0.12142 0.0862,-0.22989 0.0862,-0.22989s0.28579,-0.36935 0.20759,-0.71521c-0.0862,-0.34364 -0.63894,-0.27382 -0.63894,-0.27382l-3.0655,0.51376l0,0l-0.00018,0z"/>
      <path stroke="null" fill="#39331f" fill-rule="evenodd" d="m74.50976,29.23303a0.27939,0.26769 0 0 0 -0.03235,0.13947c0.00533,0.06965 0.02702,0.16007 0.24527,0.36425c0.18608,0.17812 0.14556,0.37702 0.14556,0.37702s0.09366,0.01805 0.34782,-0.09587c0.19959,-0.09042 0.2666,0.06982 0.2666,0.06982a0.56358,0.53998 0 0 1 0.18608,-0.05688a0.40718,0.39013 0 0 0 0.16707,-0.05109s0.2346,0.22989 0.43953,0.33836c0.18608,0.0957 0.29397,0.16024 0.38568,0.0957c0.0862,-0.05688 0.0862,-0.17318 0.08069,-0.22478a0.70008,0.67076 0 0 0 -0.08069,-0.13436c-0.05936,-0.08259 -0.15374,-0.17829 -0.15996,-0.25543c-0.01351,-0.17812 0.14023,-0.39013 0.1077,-0.44173s-0.15356,-0.06454 -0.45286,0.03883c-0.30996,0.09809 -1.64739,-0.1628 -1.64739,-0.1628l0,0l0.00124,-0.00051z"/>
      <path stroke="null" fill="#292311" fill-rule="evenodd" d="m75.21606,30.38775s-0.15356,-0.13947 -0.09971,-0.81636a0.87763,0.84088 0 0 1 0.19408,0.01805s0.08371,0.52449 -0.09438,0.79831z"/>
      <path stroke="null" fill="#252211" fill-rule="evenodd" d="m74.1216,27.56676a0.42193,0.40426 0 0 0 0.05936,-0.05109c-0.05332,0.09553 -0.29948,0.47783 -0.09988,1.0798c0.19959,0.59924 0.70097,1.04608 1.31841,1.06685s0.94197,-0.26871 1.31308,-0.70261c0.14556,-0.17301 0.31281,-0.39013 0.46103,-0.53726c0.2211,-0.23006 0.39367,-0.2946 0.39367,-0.51665c0,-0.45467 -0.48538,-0.65884 -1.19986,-0.86285s-1.35893,-0.1788 -1.69324,-0.03917c-0.32614,0.15224 -0.46637,0.31248 -0.55274,0.56314l0,0l0.00018,-0.00017z"/>
      <path stroke="null" fill="#3f3824" fill-rule="evenodd" d="m76.41592,30.59176l0.05332,-0.02588s0.01333,-0.20435 0.09971,-0.1989c0.0862,0.01294 0.12672,0.12159 0.11855,0.16024c-0.00533,0.03866 -0.02684,0.10336 -0.11321,0.09553c-0.11321,0.00255 -0.15889,-0.03099 -0.15889,-0.03099l0.00053,0z"/>
      <path stroke="null" fill="#2d2815" fill-rule="evenodd" d="m76.17599,29.7238s0.05332,-0.01805 0.11855,0.04393c0.05332,0 0.28579,-0.02588 0.35866,0.01805s0.09438,0.08259 0.09438,0.08259s-0.27228,0.05688 -0.42069,0c-0.15089,-0.04904 -0.15089,-0.14457 -0.15089,-0.14457z"/>
      <path stroke="null" fill="#82764f" fill-rule="evenodd" d="m77.37585,29.76245c0,-0.01294 -0.14556,-0.10847 -0.2993,-0.13964c-0.02702,-0.00511 -0.03252,0.01294 -0.05332,0.01294c-0.01351,-0.00511 -0.01884,-0.04393 -0.01884,-0.04393l-0.08744,0.0441s-0.01351,0.01805 0.03235,0.05109c0.04034,0.03099 0.10788,0.05688 0.12672,0.10847s0.01884,0.06965 0.02702,0.07748c0.00533,0.00511 0.09971,0 0.14556,-0.02588s0.13223,-0.06812 0.12672,-0.08514l0,0l0.00053,0.00051z"/>
      <path stroke="null" fill="#2d2816" fill-rule="evenodd" d="m76.01425,30.28694s0.02684,-0.17812 0.20759,-0.18595c0.18591,-0.01294 0.2211,0.16007 0.2211,0.16007l-0.10788,0.10336c0,-0.00255 -0.08087,-0.11103 -0.31992,-0.07748l-0.00089,0z"/>
      <path stroke="null" fill="#574f35" fill-rule="evenodd" d="m77.1871,29.51962s-0.09988,0.10336 -0.3208,0.13436c-0.01884,-0.02588 -0.05936,-0.07748 0,-0.16007s0.12672,-0.10847 0.19408,-0.08276a0.15782,0.15122 0 0 1 0.12672,0.10847z"/>
      <path stroke="null" fill="#82764f" fill-rule="evenodd" d="m77.5941,29.64632c0.00551,-0.02588 -0.01333,-0.03099 0,-0.04393s0.08638,-0.03866 0.09988,-0.02588c0.00533,0.00528 0,0.02588 0,0.05109s0,0.05109 -0.01351,0.06965c-0.01884,0.02588 -0.07269,0.03883 -0.09971,0.03116s-0.03235,-0.04393 -0.03235,-0.05109c0.01333,-0.00511 0.04568,-0.01805 0.04568,-0.03099zm0.46032,-0.27893c0,-0.01294 0.04585,-0.03883 0.07287,-0.03883c0.04034,0 0.04034,0.03099 0.04585,0.03883c0.01333,0.00511 0.01333,-0.00528 0.02684,0.01805s0.03252,0.06454 0.01884,0.09042s-0.06736,0.04376 -0.08069,0.03866c-0.01884,-0.01294 -0.0782,-0.12908 -0.08371,-0.14713z"/>
      <path stroke="null" fill="#6e6342" fill-rule="evenodd" d="m77.12774,29.70575s0.05936,0.01277 0.14023,0.07748c-0.02702,0.01805 -0.06754,0.03866 -0.06754,0.03866s-0.00533,-0.05943 -0.07269,-0.11631l0,0.00017z"/>
      <path stroke="null" fill="#585136" fill-rule="evenodd" d="m76.99568,29.13733c-0.01351,-0.01277 0.04034,-0.04376 0.07269,-0.03866s0.04585,0.02588 0.08087,0.03099s0.04052,-0.01294 0.05332,-0.02588s0.05936,-0.00511 0.06736,0a0.15018,0.14389 0 0 1 0.01351,0.01805a0.07465,0.07152 0 0 1 0.02684,-0.05109a0.08513,0.08157 0 0 1 0.07287,-0.01294c0.00533,0.01805 0.03235,0.08259 0.02702,0.09553s-0.0862,0.03116 -0.09988,0.01805c0.01351,0.03116 0.07287,0.0957 0.08087,0.10847s-0.05936,0.04393 -0.0862,0.03883c-0.03768,-0.00255 -0.26962,-0.1318 -0.30996,-0.18085l0.00071,-0.00051zm0.35315,-0.42879a0.06256,0.05994 0 0 0 -0.02702,-0.03099c-0.01884,-0.00511 -0.08087,0 -0.08087,0.03099s0.05332,0.20435 0.11321,0.2946c0.06754,0.09042 0.11321,0.16518 0.15907,0.18595a0.06256,0.05994 0 0 0 0.08087,-0.02588c0.00533,-0.01294 0.01884,-0.10847 0.01351,-0.33325s-0.01351,-0.44173 -0.02702,-0.45467s-0.06736,-0.01277 -0.0862,0.01294s-0.14023,0.28166 -0.14574,0.32031l0,0l0.00018,0z"/>
      <path stroke="null" fill="#574f35" fill-rule="evenodd" d="m77.1089,30.03117s-0.09438,-0.05688 -0.18608,-0.01805c-0.0862,0.03883 -0.08087,0.19123 -0.08087,0.19123a0.12779,0.12244 0 0 0 0.11872,-0.01294c0.05936,-0.03866 0.13472,-0.10319 0.14823,-0.16007l0,-0.00017z"/>
      <path stroke="null" fill="#82764f" fill-rule="evenodd" d="m77.2868,30.23534c-0.00533,-0.05109 -0.05332,-0.05109 -0.05332,-0.07748a0.06061,0.05807 0 0 1 0.05918,-0.04393c0.02702,0 0.05332,0.03099 0.08638,0.05109c0.03235,0.01805 0.08087,0.05109 0.0862,0.09042s-0.05332,0.14713 -0.11855,0.14713s-0.04585,-0.11631 -0.05936,-0.1679l-0.00053,0.00068zm0.5204,-0.06982s-0.10788,0.03099 -0.09988,0s0.03252,-0.03866 0.06754,-0.03866a0.10664,0.10217 0 0 1 0.06736,-0.03116a0.05847,0.05602 0 0 1 0.04034,0.01294s0.07287,-0.03099 0.09438,-0.01294s0.00551,0.01805 0.01884,0.03883a0.18964,0.1817 0 0 1 0.03252,0.07748c0,0.0206 -0.08087,0.06454 -0.14574,0.05688c-0.07536,-0.0155 -0.06203,-0.09042 -0.07536,-0.10336zm0.6281,-0.11631s0.03235,0.01805 0.00551,0.03883c-0.01884,0.01805 -0.11321,0.05109 -0.19426,0.05688c-0.08087,0 -0.15356,0.01277 -0.15356,-0.01294s0.06736,-0.07748 0.1077,-0.09042a0.08602,0.08242 0 0 1 0.06754,-0.03099c0.03235,0 0.15889,-0.01294 0.19408,-0.01805c0.03235,-0.00528 0.05936,0.01277 0.04034,0.03866c-0.008,0.01805 -0.06736,0.01805 -0.06736,0.01805zm0.18608,-0.79763s-0.04052,0.08259 -0.0862,0.08259c-0.04585,-0.00511 -0.04585,-0.01805 -0.04585,-0.03099c0,-0.01805 0.04585,-0.06454 0.04034,-0.07748c-0.01333,0 -0.04585,0 -0.04034,-0.03099c0,-0.02588 0.04585,-0.05688 0.0862,-0.05109a0.17773,0.17029 0 0 1 0.10788,-0.03866c0.04585,0 0.0862,0.01277 0.0862,0.03866s-0.05332,0.08259 -0.07287,0.0957c-0.02151,0.0206 -0.04852,0.03406 -0.07536,0.01277l0,-0.00051zm-0.61477,1.52663s-0.05332,0.00528 -0.05332,0.03099c0,0.01294 0.01333,0.01294 0.03235,0.00528a0.14645,0.14032 0 0 0 0.03235,-0.00528c0.00533,0.00528 0.00533,0.03099 0.04585,0.03099a0.25611,0.24539 0 0 0 0.09438,-0.03099c0.03235,-0.01277 0.05936,-0.02588 0.05936,-0.05109c-0.01351,-0.04393 -0.04052,-0.06471 -0.08087,-0.06471a0.10753,0.10302 0 0 0 -0.05936,0.01294s-0.01351,-0.02588 -0.05936,0s-0.04052,0.02588 -0.02702,0.03883c0.02417,0.0206 0.01617,0.03406 0.01617,0.03406l-0.00053,-0.00102zm-0.30463,0.26871c0,-0.01294 0.06736,-0.03883 0.0862,-0.03099c0.01884,0.00511 0.07269,0.10319 0.07269,0.11358c0,0.01294 -0.06736,0.04393 -0.09438,0.04393s-0.07269,-0.04393 -0.07269,-0.05109c0,-0.00511 0.03235,-0.01277 0.03235,-0.01805c0.008,-0.01277 -0.02417,-0.04393 -0.02417,-0.05688l0,-0.00051zm-0.21328,-0.37719c0.01351,-0.00511 0.01351,-0.01805 0.03235,-0.03099a0.04639,0.04445 0 0 1 0.04052,-0.00511a0.06558,0.06284 0 0 1 0.04585,-0.03116c0.03235,-0.00511 0.05936,0 0.05332,0.01294c0,0.03883 0.02702,0.06454 0.02702,0.09553s-0.01884,0.06982 -0.0862,0.0957c-0.06736,0.01805 -0.15907,0.01805 -0.17258,0.01294s-0.02702,-0.05688 -0.01351,-0.08276s0.05119,-0.05415 0.07287,-0.06709l0,0l0.00036,0z"/>
      <path stroke="null" fill="#6e6342" fill-rule="evenodd" d="m77.57455,30.68729s-0.04585,0.02588 -0.04585,0.03883a0.11979,0.11477 0 0 0 -0.00533,0.03866c0,0.00766 0.05936,-0.00511 0.06736,-0.01294c0.00267,-0.00511 -0.01617,-0.05109 -0.01617,-0.06454z"/>
      <path stroke="null" fill="#585136" fill-rule="evenodd" d="m77.17359,30.56587c0.02684,0.00528 0.07269,0 0.1077,0.01294c0.02702,0.01294 0.04585,0.03883 0.01884,0.06982s-0.05332,0.07748 -0.11321,0.06965c-0.06736,-0.00511 -0.13205,-0.03866 -0.13205,-0.06454a0.12921,0.1238 0 0 1 0.03235,-0.09042c0.02702,-0.0206 0.04034,-0.00766 0.0862,0.00255l0,0l0.00018,0z"/>
      <path stroke="null" fill="#574f35" fill-rule="evenodd" d="m77.14124,30.59176s-0.0862,0.06454 -0.10788,0.0957c-0.02702,0.03099 -0.15907,0.19106 -0.19941,0.22461a0.50778,0.48651 0 0 1 0.04568,-0.06454a0.27584,0.26429 0 0 0 -0.11321,0.13947c-0.03235,0.0957 0.18075,0.1473 0.3208,0.18612s0.19426,0.05109 0.19426,0.05109a1.50574,1.44268 0 0 1 -0.13223,-0.235c-0.05332,-0.12142 -0.08087,-0.13436 -0.04585,-0.19123c0.02702,-0.05688 0.06754,-0.09553 0.06754,-0.13947c-0.01617,-0.04087 -0.02968,-0.06675 -0.02968,-0.06675z"/>
      <path stroke="null" fill="#252211" fill-rule="evenodd" d="m74.06757,30.79593a0.16422,0.15735 0 0 0 0.05936,0c0.04034,-0.00528 0.46103,-0.15326 0.90056,-0.12669a4.81757,4.61583 0 0 1 0.97325,0.15326c0.55274,0.13947 1.24021,0.41584 1.68507,0.57353c0.11855,0.04376 0.2346,0.12142 0.31992,0.15224c0.33982,0.12669 0.35315,0.12669 0.55274,0.16024c0.2346,0.03099 0.47454,-0.04393 0.72532,-0.09553c0.3073,-0.06471 0.83302,-0.0957 1.29406,-0.16024a2.64339,2.53269 0 0 0 0.43953,-0.09553s-0.36666,0.3513 -1.24572,0.47783a3.8971,3.73391 0 0 1 -1.07296,0.01294c-0.28046,-0.02588 -0.46637,-0.06471 -0.6066,-0.10336c-0.15907,-0.04393 -0.48538,-0.16024 -0.88705,-0.25543c-0.28046,-0.06982 -0.59327,-0.12142 -0.95175,-0.18595c-0.88439,-0.15513 -1.84413,-0.33325 -2.18609,-0.50627l0.00036,-0.00102z"/>
      <line stroke="null" fill="none" y2="25.51053" x2="71.36321" y1="27.52027" x1="73.6092"/>
      <path stroke="null" fill="#cfb66c" fill-rule="evenodd" d="m73.0753,29.19948c-0.21328,0.17301 -0.43953,0.33836 -0.66045,0.49843l-0.66596,0.49026c-0.22643,0.16007 -0.44753,0.32542 -0.67413,0.48566s-0.45286,0.31248 -0.69315,0.45978c0.21328,-0.17301 0.43953,-0.33325 0.66596,-0.49077s0.46121,-0.31197 0.67964,-0.4717l0.66596,-0.49094c0.2291,-0.16007 0.45019,-0.32542 0.68213,-0.48038l0,-0.00034zm-1.17818,1.80829s0.23994,-0.19123 0.53924,-0.45978c0.37199,-0.33308 0.82769,-0.75948 0.97325,-0.8368l-1.51267,1.29674l0.00018,-0.00017z"/>
      <path stroke="null" fill="#cfb66c" fill-rule="evenodd" d="m71.89712,31.0076c0.11872,-0.11358 0.24545,-0.22461 0.37217,-0.33325l0.19408,-0.16007c0.05936,-0.05109 0.1269,-0.10847 0.18608,-0.16535c0.11855,-0.11358 0.2346,-0.23517 0.35315,-0.3513a2.26678,2.17185 0 0 1 0.18608,-0.16535a0.50298,0.48192 0 0 1 0.1077,-0.06982c0.03252,-0.01805 0.06754,-0.05109 0.11321,-0.05688c-0.02684,0.03883 -0.05918,0.05688 -0.0862,0.09042c-0.03235,0.02588 -0.05936,0.05688 -0.0862,0.08259c-0.05936,0.05688 -0.12672,0.10847 -0.18608,0.16024c-0.12672,0.10336 -0.25878,0.20435 -0.3855,0.31248s-0.24527,0.22478 -0.37217,0.33325c-0.13739,0.1112 -0.26411,0.21967 -0.39634,0.32355l0,-0.00051zm1.61237,-1.03331s-0.87888,0.82419 -1.05963,0.95838l1.05963,-0.95838z"/>
      <path stroke="null" fill="#cfb66c" fill-rule="evenodd" d="m73.50949,29.97429a2.86982,2.74964 0 0 1 -0.2538,0.24794l-0.2666,0.24283c-0.0862,0.08259 -0.16724,0.16535 -0.25878,0.24794c-0.09438,0.07748 -0.18057,0.15326 -0.28046,0.22478l0.25878,-0.24283c0.08638,-0.08259 0.18075,-0.15224 0.27246,-0.235l0.25878,-0.24283c0.08887,-0.08514 0.17524,-0.1679 0.26962,-0.24283zm0.04034,0.44684a5.60527,5.37054 0 0 1 -0.28579,0.63296c-0.22643,0.43406 -0.56607,0.97643 -0.71448,1.25298l1.00027,-1.88594z"/>
      <path stroke="null" fill="#cfb66c" fill-rule="evenodd" d="m73.54984,30.4213c0,0.09553 -0.02702,0.17829 -0.05936,0.26088a2.67769,2.56556 0 0 1 -0.1077,0.24283c-0.04052,0.07748 -0.08638,0.16024 -0.13223,0.23517s-0.09971,0.15224 -0.14023,0.22989l-0.27228,0.45978c-0.09438,0.15326 -0.18608,0.30737 -0.28579,0.45467c0.06736,-0.16535 0.15907,-0.32031 0.24545,-0.47272c0.09438,-0.15326 0.18057,-0.30652 0.2666,-0.46506a2.73439,2.61988 0 0 0 0.11321,-0.24266c0.04034,-0.08276 0.08069,-0.16024 0.11321,-0.23517c0.04034,-0.08259 0.07269,-0.16024 0.11321,-0.235c0.04568,-0.08021 0.08353,-0.15769 0.14556,-0.23261l0.00036,0z"/>
      <path stroke="null" fill="#dec270" fill-rule="evenodd" d="m74.50976,32.53951s-0.2666,0.33836 -0.23994,0.76715c0.07269,-0.22461 0.1644,-0.56825 0.23994,-0.76715zm0.25344,0.33921s-0.09438,0.91956 -0.17258,1.37167c0.11055,-0.52261 0.13205,-0.47868 0.17258,-1.37167zm1.76593,1.42599s-0.39901,1.1239 -0.40718,1.43621c0.08638,-0.32116 0.25344,-0.97728 0.40718,-1.43706l0,0.00085z"/>
      <path stroke="null" fill="#cbaf59" fill-rule="evenodd" d="m77.46205,32.47003s0.64712,1.02292 1.1325,1.89599c-0.13134,-0.43934 -0.43349,-1.24515 -1.1325,-1.89599z"/>
      <path stroke="null" fill="#e3c677" fill-rule="evenodd" d="m79.20114,33.97589a19.63108,18.809 0 0 1 0.95975,1.85733c-0.05385,-0.43917 -0.19959,-1.19082 -0.95975,-1.85733z"/>
      <path stroke="null" fill="#ecd592" fill-rule="evenodd" d="m84.31304,35.48413c0.1077,-0.06454 0.3208,-0.41601 0.50689,-0.50371c0.18591,-0.09042 0.32614,-0.10847 0.49338,-0.28677c0.16707,-0.18612 0.21328,-0.29971 0.57958,-0.44684c0.5124,-0.21201 0.15996,-0.48583 0.15996,-0.48583a1.65414,1.58487 0 0 1 0.18057,-0.14713c0.13223,-0.09553 0.28579,-0.21184 0.27246,-0.41601c-0.01884,-0.34347 -0.0862,-0.84207 -0.38017,-1.13139c0.28579,-0.05688 0.83302,-0.09553 1.17302,-0.17812c0.3935,-0.0957 0.57425,-0.23006 0.57425,-0.23006s-0.22643,-0.36935 0.14023,-0.74126s0.66596,-0.59414 0.88705,-1.01015c-0.25344,-0.03099 -0.63983,-0.16007 -1.62588,0.1989a1.23754,1.18572 0 0 1 0.15374,0.08259s-0.6066,0.16024 -0.82769,0.33853c-0.38568,0.31248 -0.4342,0.56825 -0.85204,0.75948s-0.83853,0.13947 -1.18618,0.29443s-0.39901,0.28677 -0.52591,0.34364c0.02702,0.03099 -0.00533,0.08259 0.04585,0.12652c-0.03235,0.04393 -0.2211,0.33836 -0.41251,0.33836c0.01884,0.06982 0.18057,0.12142 0.18057,0.12142s-0.11855,0.08276 -0.42051,0.10336c0.15356,0.15326 0.2993,0.32031 0.70097,0.56314c-0.03235,0.06454 -0.16724,0.16024 -0.11321,0.28166c0.05936,0.12142 0.21328,0.28677 0.82769,0.42112c-0.31281,0.01277 -0.67929,0.08259 -1.17302,0.01805c-0.49338,-0.05688 -0.57425,-0.09042 -0.87888,-0.01805c0.03235,0.03099 0.11855,0.03099 0.19408,0.11358c-0.08087,0.00511 -0.58776,-0.05688 -0.76033,0.16024c-0.18057,0.22461 -0.25878,0.59414 -0.24527,0.84207c-0.09438,0.04393 -0.18608,0.12142 -0.14023,0.28166s0.28579,0.21184 0.43953,0.31248c0.15356,0.10847 0.16707,0.14713 0.31281,0.12142c0.15356,-0.03099 0.37999,-0.17812 0.51222,-0.17812s0.22643,0.09553 0.22643,0.09553s0.35866,-0.16535 0.39367,-0.13436c0.03235,0.03099 0.00533,0.22989 0.04034,0.26088c0.03555,0.02333 0.43953,-0.20656 0.54741,-0.27127l-0.00089,0z"/>
      <path stroke="null" fill="#fff" fill-opacity="0.8" fill-rule="evenodd" d="m92.15079,25.14629c-1.68507,-4.16933 -5.85072,-4.94176 -5.85072,-4.94176l-11.88468,0l0.04585,4.24681l2.36684,0l0,9.48317l-2.41287,0l0,4.23915l11.55588,0c2.78504,0 5.01752,-2.68153 5.01752,-2.68153c3.57506,-4.86155 1.162,-10.34585 1.162,-10.34585l0.00018,0zm-6.11767,7.48876s-0.90643,1.25298 -1.89266,1.25298l-1.97281,0l-0.04674,-9.4263l2.53178,0s1.17302,0.235 1.99254,2.45913c0,0 1.08647,3.18439 -0.6121,5.71419z"/>
     </g>
    </g>
   </g>
  </g>
  <text transform="matrix(1.10293 0 0 1.10293 0.041808 -1.26123)" stroke="#000" xml:space="preserve" text-anchor="start" font-family="'Open Sans ExtraBold'" font-size="24" id="svg_9" y="36.63085" x="-1.27643" stroke-width="0" fill="#008800">Green   oge</text>
 </g>

</svg>